<?xml version="1.0" encoding="utf-8"?>
<!-- Generator: Adobe Illustrator 27.5.0, SVG Export Plug-In . SVG Version: 6.00 Build 0)  -->
<svg version="1.1" xmlns="http://www.w3.org/2000/svg" xmlns:xlink="http://www.w3.org/1999/xlink" x="0px" y="0px"
	 viewBox="0 0 3710 3710" style="enable-background:new 0 0 3710 3710;" xml:space="preserve">
<g id="Background">
	<g>
		<g>
			<rect style="fill:#FFFFFF;" width="3710" height="3710"/>
		</g>
	</g>
</g>
<g id="Illustration">
	<g>
		<linearGradient id="SVGID_1_" gradientUnits="userSpaceOnUse" x1="3526.4106" y1="4041.1592" x2="1075.5192" y2="997.3056">
			<stop  offset="0" style="stop-color:#B37CFF"/>
			<stop  offset="1" style="stop-color:#F895E7"/>
		</linearGradient>
		<path style="opacity:0.3;fill:url(#SVGID_1_);" d="M2852.155,2840.773c-56.296,59.266-109.563,97.486-151.648,127.683
			c-494.701,354.954-1080.064,251.487-1204.47,226.219c-183.709-37.312-538.814-109.436-795.548-411.351
			c-388.418-456.772-327.936-1176.403-26.652-1651.441c55.109-86.893,346.214-569.167,937.881-646.508
			c358.071-46.806,775.467,47.596,1077.733,300.836C3323.934,1317.782,3278.766,2391.651,2852.155,2840.773z"/>
		<g>
			
				<linearGradient id="SVGID_00000085934823330496391680000010400988404216535979_" gradientUnits="userSpaceOnUse" x1="6765.1963" y1="27.2033" x2="8055.9375" y2="27.2033" gradientTransform="matrix(0.8382 0.5453 -0.5453 0.8382 -5418.4575 -2614.5835)">
				<stop  offset="0" style="stop-color:#A737D5"/>
				<stop  offset="1" style="stop-color:#EF497A"/>
			</linearGradient>
			<path style="fill:url(#SVGID_00000085934823330496391680000010400988404216535979_);" d="M644.451,475.8
				c-0.646-13.961,19.828-19.34,29.605-7.848c99.287,116.701,327.366,453.246,164.662,936.635
				c-204.136,606.484-96.288,861.813,64.882,1035.359c0,0-244.704-113.135-363.276-373.925
				C249.205,1425.721,655.936,724.036,644.451,475.8z"/>
			<path style="fill:#FFFFFF;" d="M697.176,686.968c1.695,72.074,1.759,144.064-1.199,215.812
				c-2.525,71.769-7.549,143.324-15.136,214.521c-7.902,71.15-17.342,142.089-30.25,212.413
				c-12.541,70.388-28.568,140.065-44.943,209.96c-15.913,69.955-32.405,140.328-40.586,212.773
				c-8.24,72.283-6.653,147.044,10.556,220.062c4.311,18.202,9.016,36.424,14.892,54.279c5.504,17.94,11.909,35.715,18.671,53.398
				c13.725,35.326,30.117,70.042,49.327,103.674c38.617,67.198,88.642,129.751,146.202,185.533
				c6.058,5.871,16.173,6.593,22.592,1.614c6.303-4.889,6.698-13.459,0.974-19.326l-0.04-0.042
				c-13.58-13.893-26.969-27.896-39.627-42.339c-6.458-7.141-12.553-14.5-18.798-21.763c-5.934-7.446-12.191-14.709-17.865-22.295
				c-23.257-30.029-44.153-61.335-62.369-93.713c-36.748-64.546-62.902-133.71-79.481-203.445
				c-7.845-34.94-12.751-70.186-14.546-105.497c-1.764-35.314-0.423-70.656,3.239-105.851
				c7.324-70.431,22.979-140.233,38.308-210.311c15.227-70.116,29.969-140.692,41.321-211.842
				c5.787-35.552,10.834-71.225,15.14-106.992c2.272-17.867,4.144-35.787,6.053-53.7c1.71-17.938,3.306-35.887,4.733-53.851
				c5.555-71.878,8.58-143.985,8.98-216.196c0.003-72.23-2.195-144.539-7.583-216.799c-0.155-2.066-2.194-3.72-4.557-3.694
				C698.888,683.375,697.133,684.984,697.176,686.968z"/>
		</g>
		<g>
			<g>
				
					<linearGradient id="SVGID_00000180337013163960976010000008526000477958832282_" gradientUnits="userSpaceOnUse" x1="-109.1037" y1="3923.0469" x2="1128.6847" y2="3923.0469" gradientTransform="matrix(0.7628 -0.6468 0.6468 0.7628 -2033.5732 -1535.8301)">
					<stop  offset="0" style="stop-color:#CE1567"/>
					<stop  offset="1" style="stop-color:#7A1DBC"/>
				</linearGradient>
				<path style="fill:url(#SVGID_00000180337013163960976010000008526000477958832282_);" d="M669.275,1777.712
					c-17.185,12.543-41.594,3.458-46.668-17.203c-27.998-114.004-78.008-443.49,166.455-766.703
					c206.438-272.938,292.44-440.555,326.209-519.352c7.141-16.662,31.402-14.524,35.553,3.122
					C1196.614,672.268,1291.977,1323.226,669.275,1777.712z"/>
				<path style="fill:#FFFFFF;" d="M645.289,1761.757c-0.528-0.004-1.06-0.058-1.597-0.168c-4.496-0.91-7.403-5.293-6.492-9.789
					c1.033-5.097,106.332-514.181,376.226-906.65c2.598-3.776,7.769-4.734,11.552-2.138c3.78,2.601,4.736,7.771,2.138,11.553
					c-267.931,389.612-372.609,895.469-373.635,900.532C652.68,1759.058,649.185,1761.785,645.289,1761.757z"/>
			</g>
		</g>
		<g>
			
				<linearGradient id="SVGID_00000144313431358693705150000008770288992236541352_" gradientUnits="userSpaceOnUse" x1="424.4144" y1="3537.2546" x2="3009.3403" y2="472.6515">
				<stop  offset="0" style="stop-color:#53D8FF"/>
				<stop  offset="1" style="stop-color:#3840F7"/>
			</linearGradient>
			<path style="fill:url(#SVGID_00000144313431358693705150000008770288992236541352_);" d="M3183.524,1899.334
				c-29.838,679.672-648.758,1204.547-1382.398,1172.34S496.943,2462.376,526.78,1782.703s648.758-1204.547,1382.398-1172.34
				C2642.818,642.57,3213.362,1219.662,3183.524,1899.334z"/>
			
				<linearGradient id="SVGID_00000157272729274799607030000009474429545061246102_" gradientUnits="userSpaceOnUse" x1="1628.3442" y1="847.3411" x2="813.9332" y2="5384.0503">
				<stop  offset="0" style="stop-color:#53D8FF"/>
				<stop  offset="1" style="stop-color:#3840F7"/>
			</linearGradient>
			<path style="fill:url(#SVGID_00000157272729274799607030000009474429545061246102_);" d="M852.09,1024.901
				c-29.186,46.854-51.689,99.601-47.463,154.64c4.893,63.729,37.149,123.41,38.802,187.305
				c2.804,108.364-80.847,199.069-106.942,304.281c-29.167,117.599,80.803,251.592,124.617,317.23
				c43.813,65.638,24.984-53.257,51.553-99.619c26.569-46.362,83.857,195.083,173.344,248.073
				c48.012,28.431,104.34,47.357,138.871,91.187c50.364,63.926,36.409,154.892,28.848,235.922
				c-7.561,81.031,3.765,179.782,76.741,215.804c42.969,21.21,97.587,14.032,136.363,42.186
				c68.097,49.444,35.567,157.238,62.551,236.948c29.345,86.683,87.53,87.824,177.553,106.202
				c90.024,18.377-11.343-179.399,30.831-248.522c22.167-36.331,56.006-65.243,73.489-104.046
				c24.245-53.814,17.417-125.714,64.451-161.372c35.257-26.729,84.316-19.498,128.558-19.888
				c44.242-0.39,98.051-19.589,103.07-63.547c4.453-39.003-34.592-70.104-72.794-79.142c-38.202-9.038-78.909-4.729-116.427-16.281
				c-107.314-33.043-157.367-183.213-269.433-190.24c-95.792-6.006-176.026,101.517-270.152,82.738
				c-52.474-10.47-88.391-56.942-127.342-93.63c-50.036-47.129-112.135-82.5-151.861-138.595s-46.484-145.757,10.03-184.885
				c41.981-29.065,101.63-17.267,143.103,12.518c41.473,29.785,69.721,73.977,100.179,114.958
				c9.407,12.657,20.053,25.774,35.103,30.485c40.499,12.678,70.05-44.3,60.36-85.615c-9.691-41.316-38.876-77.655-40.247-120.069
				c-2.416-74.752,78.082-122.184,148.701-146.815c70.619-24.631,153.853-53.998,174.615-125.849
				c7.334-25.38,5.41-53.308,16.602-77.238c37.092-79.306,232.821-118.897,186.035-164.884s-195.281-55.982-224.198-148.596
				c-10.352-33.156-21.011-76.983-55.597-80.19c-56.336-5.224-88.482,64.51-135.735,76.48
				c-22.433,5.682-24.591,43.785-23.716,90.639c0.635,34.009-26.416,62.096-60.425,62.739c-34.009,0.643-62.106-26.4-62.754-60.409
				c-0.241-12.624,1.97-25.383,7.161-38.108c9.098-22.3,26.375-40.133,43.794-56.765c72.679-69.397,289.551-145.645,244.138-175.185
				c-45.414-29.54-263.376-111.062-295.888-66.073c-32.512,44.989,21.26,6.895,34.375,60.251
				c13.115,53.356-161.237,46.202-241.856,69.303c-13.311,3.814-28.074,7.529-40.537,1.495
				c-13.93-6.744-19.795-22.959-27.355-36.464c-40.488-72.335-175.155-25.383-175.155-25.383S878.168,983.037,852.09,1024.901z"/>
			
				<linearGradient id="SVGID_00000129928589930554296700000014288979631983681678_" gradientUnits="userSpaceOnUse" x1="1738.2539" y1="30.1431" x2="2031.3912" y2="2548.4478">
				<stop  offset="0" style="stop-color:#53D8FF"/>
				<stop  offset="1" style="stop-color:#3840F7"/>
			</linearGradient>
			<path style="fill:url(#SVGID_00000129928589930554296700000014288979631983681678_);" d="M1461.199,696.646
				c-19.574,36.49,38.637,35.899,44.428,76.9c52.403,5.711,73.923-76.909,125.747-86.552c29.247-5.442,57.605,15.513,73.498,40.66
				c15.893,25.148,23.306,54.674,36.777,81.199c30.182,59.43,92.503,101.256,158.938,106.67c14.454,1.178,30.382,0.253,41.262-9.334
				c31.584-27.832-13.601-80.118-1.863-120.545c13.414-46.197,80.027-39.188,125.05-56.131
				c12.418-4.673,107.929-30.159,109.465-43.338c2.724-23.365-41.586-38.239-91.155-50.985
				c-83.981-21.595-231.749-20.697-303.978-14.162C1683.275,629.722,1523.176,622.698,1461.199,696.646L1461.199,696.646z"/>
			<g>
				
					<linearGradient id="SVGID_00000042706149145876258730000009178714866844248746_" gradientUnits="userSpaceOnUse" x1="2370.8657" y1="3087.293" x2="3475.0676" y2="-10.4665">
					<stop  offset="0" style="stop-color:#53D8FF"/>
					<stop  offset="1" style="stop-color:#3840F7"/>
				</linearGradient>
				<path style="fill:url(#SVGID_00000042706149145876258730000009178714866844248746_);" d="M3063.709,2265.979
					c21.775-136.307,19.963-276.349-5.333-412.046c-6.748-36.199-22.543-79.354-58.996-84.564
					c-42.164-6.027-93.781,42.407-120.176,8.979c-11.652-14.755-7.002-36.24-0.402-53.844
					c17.407-46.429,44.656-89.139,79.425-124.491c21.6-21.961,46.313-41.429,62.945-67.356
					c35.573-55.453,10.602-136.485-39.746-178.977c-50.347-42.49-115.298,33.708-168.222,3.46s-54.572-103.627-64.518-163.768
					c-7.368-44.548-40.191-165.241-76.449-106.462c-36.258,58.779,48.365,292.764,143.605,404.925
					c11.488,13.529,24.173,28.681,23.203,46.403c-2.317,42.319-63.985,40.437-105.472,49.101
					c-51.354,10.727-130.065-16.777-86.627,72.709c22.909,47.196,132.339,111.793,102.935,143.377
					c-29.404,31.584-119.801,123.071-162.217,197.057c-42.416,73.987-62.972,166.119-30.986,245.176
					c31.986,79.057,128.163,133.647,206.673,100.343c36.746-15.588,76.798-47.996,110.955-27.344
					c30.933,18.701,26.368,63.592,24.838,99.706c-1.53,36.113,19.287,84.053,54.423,75.57c11.562-2.791,20.656-11.557,28.462-20.53
					C3031.464,2416.589,3051.829,2340.344,3063.709,2265.979z"/>
			</g>
			<ellipse style="opacity:0.18;fill:#FFFFFF;" cx="1783.189" cy="1752.143" rx="1043.364" ry="985.646"/>
			<g style="opacity:0.68;">
				<path style="fill:#FFFFFF;" d="M2225.989,1862.162c-0.317,217.178-15.151,434.795-53.228,648.898
					c-9.642,53.481-20.826,106.705-34.163,159.422c-13.375,52.694-28.823,104.929-47.744,155.989
					c-9.491,25.513-19.861,50.728-31.533,75.369c-11.683,24.627-24.653,48.722-39.718,71.57
					c-15.125,22.744-32.28,44.521-53.41,62.407c-10.561,8.886-22.15,16.758-34.877,22.521c-12.701,5.725-26.566,9.348-40.633,9.609
					c-14.053,0.418-28.122-2.355-41.073-7.576c-12.999-5.177-24.866-12.692-35.681-21.283
					c-21.631-17.324-39.163-38.861-54.558-61.424c-15.361-22.664-28.482-46.684-40.357-71.22
					c-11.828-24.572-22.347-49.726-31.932-75.203c-19.162-50.973-34.765-103.166-48.259-155.829
					c-13.471-52.679-24.77-105.881-34.493-159.346c-19.407-106.951-32.615-214.935-41.497-323.214
					c-8.819-108.296-13.196-216.937-13.655-325.588c-0.223-54.319,1.118-108.633,3.009-162.913
					c1.97-54.281,4.897-108.527,8.829-162.7c7.906-108.335,19.78-216.433,37.493-323.643
					c8.889-53.594,19.263-106.959,31.753-159.853c12.522-52.875,27.085-105.329,45.162-156.643
					c9.086-25.632,19.022-50.99,30.357-75.748c11.316-24.754,23.984-48.963,38.87-71.846c14.92-22.781,32.073-44.519,53.413-61.907
					c10.668-8.617,22.417-16.112,35.281-21.192c12.812-5.143,26.707-7.76,40.538-7.243c13.84,0.39,27.478,3.869,40.071,9.427
					c12.61,5.59,24.204,13.189,34.851,21.808c21.298,17.345,38.935,38.566,54.582,60.856c15.595,22.384,29.194,46.068,41.474,70.355
					c12.308,24.285,23.272,49.213,33.394,74.454c20.157,50.532,36.792,102.377,51.273,154.758
					c14.43,52.404,26.639,105.395,37.197,158.694C2208.491,1427.313,2225.431,1644.956,2225.989,1862.162z M2213.382,1862.162
					c0.15-108.303-4.016-216.632-13.064-324.557c-8.96-107.917-22.529-215.517-42.662-321.924
					c-10.063-53.195-21.776-106.087-35.697-158.394c-13.973-52.281-30.092-104.028-49.703-154.44
					c-9.848-25.182-20.531-50.044-32.538-74.248c-11.979-24.206-25.261-47.793-40.489-70.052
					c-15.271-22.163-32.498-43.218-53.184-60.358c-10.341-8.518-21.571-16.007-33.731-21.522
					c-12.147-5.452-25.239-9.006-38.55-9.359c-13.303-0.431-26.598,2.225-38.906,7.275c-12.352,4.997-23.684,12.352-34.009,20.841
					c-20.658,17.122-37.38,38.643-51.915,61.266c-14.507,22.719-26.855,46.811-37.872,71.464
					c-11.034,24.659-20.692,49.937-29.506,75.498c-17.535,51.172-31.588,103.518-43.608,156.286
					c-11.991,52.79-21.872,106.058-30.274,159.551c-16.738,107.01-27.656,214.898-34.614,322.987
					c-7.002,108.106-9.591,216.461-9.416,324.773c-0.197,108.299,3.513,216.625,11.652,324.624
					c8.203,107.981,20.719,215.688,39.407,322.34c9.365,53.315,20.297,106.359,33.386,158.86
					c13.11,52.481,28.316,104.474,47.027,155.171c9.359,25.341,19.637,50.337,31.19,74.714
					c11.597,24.338,24.412,48.124,39.36,70.465c14.972,22.242,32.01,43.356,52.704,60.124c10.341,8.32,21.608,15.528,33.809,20.466
					c12.161,4.958,25.232,7.695,38.321,7.261c13.089-0.325,25.985-3.77,37.938-9.24c11.969-5.509,22.992-13.077,33.108-21.696
					c20.242-17.344,36.915-38.717,51.624-61.15c14.66-22.538,27.321-46.403,38.724-70.838c11.396-24.45,21.522-49.509,30.782-74.886
					c18.461-50.791,33.501-102.826,46.481-155.34c12.942-52.536,23.746-105.604,33.02-158.933
					c18.542-106.678,30.91-214.397,39.116-322.379C2209.577,2078.818,2213.409,1970.483,2213.382,1862.162z"/>
				<path style="fill:#FFFFFF;" d="M2773.822,1862.162c-0.259,69.885-4.673,139.781-14.002,209.055
					c-9.348,69.26-23.222,137.928-41.964,205.274c-37.837,134.504-95.001,263.974-172.803,380.198
					c-38.901,58.05-83.001,112.688-132.299,162.248c-49.27,49.552-103.805,93.97-162.963,131.227
					c-59.166,37.187-123.063,67.045-190.007,87.313c-66.967,20.112-136.848,30.538-206.765,30.523
					c-69.917,0.065-139.813-10.312-206.809-30.38c-66.972-20.224-130.91-50.044-190.123-87.202
					c-59.205-37.227-113.805-81.615-163.137-131.152c-49.363-49.54-93.529-104.17-132.502-162.22
					c-77.926-116.235-135.182-245.749-173.16-380.307c-18.809-67.37-32.839-136.059-42.177-205.375
					c-9.295-69.328-13.671-139.275-13.887-209.202c0.25-69.927,4.66-139.868,13.988-209.189
					c9.373-69.306,23.446-137.98,42.289-205.329c38.052-134.514,95.378-263.96,173.345-380.101
					c38.984-58.008,83.157-112.59,132.513-162.08c49.334-49.477,103.903-93.832,163.1-130.968
					c59.199-37.081,123.127-66.729,190.006-86.948c66.902-20.089,136.708-30.503,206.554-30.486
					c69.845,0.029,139.639,10.489,206.513,30.617c66.854,20.261,130.737,49.957,189.889,87.069
					c59.146,37.169,113.654,81.552,162.923,131.046c49.293,49.508,93.399,104.098,132.313,162.106
					c77.842,116.13,135.077,245.53,172.986,379.993c18.775,67.325,32.685,135.978,42.068,205.228
					C2769.075,1722.386,2773.526,1792.277,2773.822,1862.162z M2759.368,1862.162c-0.044-69.263-4.203-138.552-13.237-207.24
					c-9.053-68.673-22.594-136.773-40.96-203.569c-36.733-133.491-92.181-262.34-168.48-378.157
					c-38.132-57.85-81.443-112.358-129.948-161.872c-48.511-49.459-102.152-94.076-160.683-131.261
					c-58.551-37.06-121.777-66.947-188.104-87.186c-66.355-20.055-135.604-30.515-204.938-30.625
					c-69.337,0.156-138.57,10.663-204.898,30.757c-66.301,20.283-129.485,50.214-187.987,87.306
					c-58.481,37.216-112.06,81.862-160.506,131.339c-48.442,49.531-91.686,104.048-129.747,161.898
					c-76.176,115.806-131.533,244.609-168.123,378.048c-36.463,133.597-54.127,272.13-54.101,410.562
					c0.039,138.432,17.775,276.949,54.314,410.504c36.665,133.396,92.091,262.131,168.306,377.843
					c38.073,57.806,81.322,112.276,129.76,161.756c48.447,49.417,101.995,94.03,160.468,131.155
					c58.489,37.016,121.66,66.776,187.87,87.051c66.233,20.117,135.379,30.661,204.643,30.866
					c69.263-0.156,138.424-10.649,204.687-30.723c66.238-20.232,129.449-49.953,187.985-86.942
					c58.52-37.094,112.133-81.677,160.642-131.077c48.501-49.462,91.818-103.924,129.961-161.73
					c76.339-115.723,131.86-244.503,168.664-377.952c18.399-66.778,31.976-134.862,41.064-203.525
					C2755.092,2000.711,2759.289,1931.425,2759.368,1862.162z"/>
				<path style="fill:#FFFFFF;" d="M776.19,1384.908l277.126-1.75l277.128-1l554.254-0.802l554.253,0.883l277.128,1.086
					l277.126,1.895c0.353,0.002,0.636,0.289,0.635,0.642c-0.003,0.348-0.286,0.631-0.635,0.633l-277.126,1.895l-277.128,1.087
					l-554.253,0.883l-554.254-0.802l-277.128-1l-277.126-1.75c-0.525-0.003-0.948-0.431-0.945-0.956
					C775.248,1385.331,775.671,1384.911,776.19,1384.908z"/>
				<path style="fill:#FFFFFF;" d="M1097.689,920.743l196.752-1.755l196.752-0.994c65.584-0.424,131.168-0.379,196.752-0.509
					l196.752-0.294l393.503,0.885l196.752,1.085l196.752,1.895c0.351,0.005,0.634,0.293,0.631,0.644
					c-0.003,0.348-0.285,0.629-0.631,0.633l-196.752,1.895l-196.752,1.086l-393.503,0.883l-196.752-0.294
					c-65.584-0.13-131.168-0.085-196.752-0.508l-196.752-0.995l-196.752-1.755c-0.524-0.005-0.947-0.434-0.942-0.96
					C1096.752,921.166,1097.173,920.748,1097.689,920.743z"/>
				<path style="fill:#FFFFFF;" d="M679.884,1849.072l301.204-1.748l301.204-1.002l602.407-0.802l602.406,0.883l301.204,1.088
					l301.204,1.893c0.351,0.002,0.636,0.29,0.634,0.642c-0.003,0.35-0.286,0.631-0.634,0.634l-301.204,1.893l-301.204,1.087
					l-602.406,0.885l-602.407-0.803l-301.204-1l-301.204-1.749c-0.524-0.003-0.947-0.431-0.945-0.956
					C678.942,1849.496,679.365,1849.075,679.884,1849.072z"/>
				<path style="fill:#FFFFFF;" d="M776.19,2313.235l277.126-1.748l277.128-1l554.254-0.803l554.253,0.885l277.128,1.086
					l277.126,1.893c0.353,0.003,0.636,0.291,0.635,0.642c-0.003,0.35-0.286,0.631-0.635,0.634l-277.126,1.893l-277.128,1.088
					l-554.253,0.883l-554.254-0.802l-277.128-1.002l-277.126-1.748c-0.525-0.003-0.948-0.431-0.945-0.957
					C775.248,2313.66,775.671,2313.24,776.19,2313.235z"/>
				<path style="fill:#FFFFFF;" d="M2711.36,2781.681H1137.345c-1.84,0-3.331-1.49-3.331-3.331c0-1.841,1.492-3.331,3.331-3.331
					H2711.36c1.84,0,3.331,1.49,3.331,3.331C2714.691,2780.191,2713.2,2781.681,2711.36,2781.681z"/>
			</g>
		</g>
		<g>
			<path style="fill:#FFFFFF;" d="M1886.164,1638.521c-188.587-33.95-369.788-110.303-510.827-217.04l12.07-7.165
				c168.554,127.557,395.554,210.829,622.751,228.55c227.298,17.693,453.661-30.369,621.048-131.857
				c73.416-44.514,130.842-95.789,170.693-152.392l15.81,6.315c-40.661,57.756-99.203,110.035-174.005,155.391
				c-170.489,103.371-401.205,152.314-632.99,134.268C1969.072,1651.35,1927.441,1645.952,1886.164,1638.521z"/>
			<path style="fill:#FFFFFF;" d="M2802.714,1730.837c-34.159-57.313-52.676-111.701-55.262-162.621
				c-6.505-128.055,92.445-188.554,93.445-189.15l5.894,9.89c-0.966,0.576-96.485,59.102-90.207,181.926
				c4.26,83.309,53.563,177.004,146.574,278.48l-5.052,6.78C2858.612,1813.048,2826.78,1771.216,2802.714,1730.837z"/>
			<path style="fill:#FFFFFF;" d="M1325.426,1401.2c-7.137,2.373-13.71,2.332-19.133-0.337l5.633-7.038
				c10.752,5.298,27.599-10.021,30.871-13.143c72.338-69.079,124.184-145.818,149.935-221.918
				c28.455-84.102,25.006-167.885-9.714-235.922l8.879-3.937c35.509,69.58,39.066,155.186,10.014,241.044
				c-26.191,77.407-78.854,155.391-152.298,225.522C1341.392,1393.325,1333.085,1398.653,1325.426,1401.2z"/>
			<path style="fill:#FFFFFF;" d="M2651.474,2283.824l-10.75-1.013c1.703-40.106,17.49-77.193,34.294-111.296
				c43.667-88.628,98.502-170.158,162.98-242.313c24.42-27.333,51.703-54.959,85.728-71.894l4.88,10.466
				c-32.498,16.18-58.941,42.994-82.677,69.56c-63.834,71.436-118.115,152.148-161.344,239.888
				C2668.337,2210.192,2653.083,2245.925,2651.474,2283.824z"/>
			
				<linearGradient id="SVGID_00000024698038749507139110000003742132731687630730_" gradientUnits="userSpaceOnUse" x1="1368.2489" y1="1286.4828" x2="997.4294" y2="2483.6965">
				<stop  offset="0" style="stop-color:#CE1567"/>
				<stop  offset="1" style="stop-color:#7A1DBC"/>
			</linearGradient>
			
				<circle style="fill:url(#SVGID_00000024698038749507139110000003742132731687630730_);" cx="1340.629" cy="1375.657" r="81.031"/>
			
				<linearGradient id="SVGID_00000121996621880030039110000002471792688325788819_" gradientUnits="userSpaceOnUse" x1="2846.5623" y1="1299.446" x2="2475.7429" y2="2496.6592">
				<stop  offset="0" style="stop-color:#CE1567"/>
				<stop  offset="1" style="stop-color:#7A1DBC"/>
			</linearGradient>
			
				<circle style="fill:url(#SVGID_00000121996621880030039110000002471792688325788819_);" cx="2817.645" cy="1392.808" r="81.031"/>
			
				<linearGradient id="SVGID_00000137109866362711073260000002795546227862531994_" gradientUnits="userSpaceOnUse" x1="1463.6868" y1="876.2639" x2="1092.8674" y2="2073.4775">
				<stop  offset="0" style="stop-color:#CE1567"/>
				<stop  offset="1" style="stop-color:#7A1DBC"/>
			</linearGradient>
			<circle style="fill:url(#SVGID_00000137109866362711073260000002795546227862531994_);" cx="1449.831" cy="920.999" r="81.031"/>
			
				<linearGradient id="SVGID_00000077284942430590653250000004955222659317308034_" gradientUnits="userSpaceOnUse" x1="2685.3005" y1="2218.616" x2="2314.481" y2="3415.8296">
				<stop  offset="0" style="stop-color:#CE1567"/>
				<stop  offset="1" style="stop-color:#7A1DBC"/>
			</linearGradient>
			
				<circle style="fill:url(#SVGID_00000077284942430590653250000004955222659317308034_);" cx="2663.301" cy="2289.642" r="81.031"/>
			
				<linearGradient id="SVGID_00000047738515259273421320000001612999199656062875_" gradientUnits="userSpaceOnUse" x1="2950.1091" y1="1778.9338" x2="2579.2896" y2="2976.1477">
				<stop  offset="0" style="stop-color:#CE1567"/>
				<stop  offset="1" style="stop-color:#7A1DBC"/>
			</linearGradient>
			<circle style="fill:url(#SVGID_00000047738515259273421320000001612999199656062875_);" cx="2928.11" cy="1849.96" r="81.031"/>
		</g>
		<g>
			<g>
				<g>
					<g>
						
							<linearGradient id="SVGID_00000139271018119883818330000008169689081262326151_" gradientUnits="userSpaceOnUse" x1="1511.3816" y1="1668.1748" x2="2042.3276" y2="1851.2595" gradientTransform="matrix(0.994 0.1092 -0.1092 0.994 466.3754 45.8821)">
							<stop  offset="0" style="stop-color:#C4421B"/>
							<stop  offset="1" style="stop-color:#5C0E16"/>
						</linearGradient>
						<path style="fill:url(#SVGID_00000139271018119883818330000008169689081262326151_);" d="M2232.627,1947.062
							c-31.489-21.699-89.37,38.72-89.37,38.72s-151.65,8.316-198.019-8.391c-46.368-16.706-39.203-199.155-39.203-199.155
							s-147.054-73.22-131.377,162.524c13.603,204.556,364.183,85.209,364.183,85.209s87.986,13.386,111.421-2.277
							C2273.696,2008.028,2264.114,1968.76,2232.627,1947.062z"/>
						
							<linearGradient id="SVGID_00000142897015681708029910000006742155267342797226_" gradientUnits="userSpaceOnUse" x1="1544.0463" y1="1579.9901" x2="2072.6819" y2="1762.2782" gradientTransform="matrix(0.994 0.1092 -0.1092 0.994 466.3754 45.8821)">
							<stop  offset="0" style="stop-color:#C4421B"/>
							<stop  offset="1" style="stop-color:#5C0E16"/>
						</linearGradient>
						<path style="fill:url(#SVGID_00000142897015681708029910000006742155267342797226_);" d="M2152.545,1977.924
							c0,0,14.992-39.223,47.926-44.955c32.934-5.732,31.917,0.459,26.365,8.824
							C2221.286,1950.158,2163.434,1997.649,2152.545,1977.924z"/>
						
							<linearGradient id="SVGID_00000115505988614836879310000009319571813144081556_" gradientUnits="userSpaceOnUse" x1="1862.2618" y1="2006.3763" x2="1952.2014" y2="1803.1798">
							<stop  offset="0" style="stop-color:#A737D5"/>
							<stop  offset="0.0834" style="stop-color:#BA3CBD"/>
							<stop  offset="0.1924" style="stop-color:#CE41A4"/>
							<stop  offset="0.3156" style="stop-color:#DD4491"/>
							<stop  offset="0.4593" style="stop-color:#E74784"/>
							<stop  offset="0.6426" style="stop-color:#ED497C"/>
							<stop  offset="1" style="stop-color:#EF497A"/>
						</linearGradient>
						<path style="fill:url(#SVGID_00000115505988614836879310000009319571813144081556_);" d="M1945.239,1977.392
							c-46.369-16.707-9.484-209.993-9.484-209.993s-170.817-62.704-161.097,173.36c4.484,108.867,123.205,129.289,215.675,119.819
							c4.616-30.803,3.215-44.672,13.712-74.263C1997.186,1985.079,1950.087,1979.138,1945.239,1977.392z"/>
					</g>
					<g>
						
							<linearGradient id="SVGID_00000008143900420383993620000013076029022306268316_" gradientUnits="userSpaceOnUse" x1="-2861.2668" y1="1380.124" x2="-2562.4646" y2="639.0954" gradientTransform="matrix(0.8608 0.5089 -0.5089 0.8608 4884.1777 2577.5925)">
							<stop  offset="0" style="stop-color:#2B3582"/>
							<stop  offset="1" style="stop-color:#150E42"/>
						</linearGradient>
						<path style="fill:url(#SVGID_00000008143900420383993620000013076029022306268316_);" d="M2046.837,1888.697l17.77,202.786
							c1.171,13.369,13.033,23.251,26.409,22.001l133.836-12.509c14.452-1.351,24.426-15.028,21.287-29.19l-46.244-208.609
							c-2.801-12.635-15.07-20.85-27.824-18.631l-105.362,18.332C2054.369,1865.023,2045.744,1876.23,2046.837,1888.697z"/>
						
							<ellipse transform="matrix(0.538 -0.843 0.843 0.538 -650.0297 2703.6494)" style="opacity:0.26;fill:#FFFFFF;" cx="2141.429" cy="1944.824" rx="33.97" ry="33.97"/>
						<path style="opacity:0.26;fill:#FFFFFF;" d="M2099.496,2076.316l-0.673-6.54c-0.045-0.437,0.276-0.831,0.713-0.876
							l105.819-10.883c0.437-0.045,0.831,0.276,0.876,0.713l0.673,6.54c0.045,0.437-0.276,0.832-0.713,0.876l-105.819,10.883
							C2099.935,2077.074,2099.541,2076.753,2099.496,2076.316z"/>
						<path style="opacity:0.26;fill:#FFFFFF;" d="M2097.481,2056.719l-0.673-6.54c-0.045-0.437,0.276-0.831,0.713-0.876
							l105.819-10.883c0.437-0.045,0.832,0.276,0.876,0.713l0.673,6.54c0.045,0.437-0.276,0.831-0.713,0.876l-105.819,10.883
							C2097.92,2057.477,2097.526,2057.156,2097.481,2056.719z"/>
					</g>
					
						<linearGradient id="SVGID_00000013171836323698046460000004254819579485150081_" gradientUnits="userSpaceOnUse" x1="1973.5363" y1="1756.2095" x2="2295.5693" y2="2029.6334" gradientTransform="matrix(0.994 0.1092 -0.1092 0.994 466.3754 45.8821)">
						<stop  offset="0" style="stop-color:#C4421B"/>
						<stop  offset="1" style="stop-color:#5C0E16"/>
					</linearGradient>
					<path style="fill:url(#SVGID_00000013171836323698046460000004254819579485150081_);" d="M2228.023,1948.26
						c0,0-36.935-6.375-38.94,17.144c-2.005,23.52-7.944,56.423,11.925,60.067c19.868,3.644,56.512,11.465,62.787-18.693
						C2270.07,1976.62,2232.651,1937.768,2228.023,1948.26z"/>
				</g>
				
					<linearGradient id="SVGID_00000150075215169637630060000011478010768503706554_" gradientUnits="userSpaceOnUse" x1="2012.5844" y1="1309.6399" x2="1116.6033" y2="2300.1953">
					<stop  offset="0" style="stop-color:#FDF53F"/>
					<stop  offset="1" style="stop-color:#D93C65"/>
				</linearGradient>
				<path style="fill:url(#SVGID_00000150075215169637630060000011478010768503706554_);" d="M1808.14,1591.79
					c-10.542,8.227-134.961,18.16-227.183,38.018c-66.892,14.404-111.969,77.145-104.264,145.136l11.025,97.285
					c1.377,12.153,14.217,19.421,25.346,14.347l261.194-119.09L1808.14,1591.79z"/>
				
					<linearGradient id="SVGID_00000164480778766329861510000007350994509038263949_" gradientUnits="userSpaceOnUse" x1="1797.8492" y1="1659.9851" x2="1224.6151" y2="2688.1094">
					<stop  offset="0" style="stop-color:#FDF53F"/>
					<stop  offset="1" style="stop-color:#D93C65"/>
				</linearGradient>
				<path style="fill:url(#SVGID_00000164480778766329861510000007350994509038263949_);" d="M1791.397,2190.513h-264.429
					c-8.448,0-15.297-6.849-15.297-15.297v-515.017c0-12.508,10.139-22.647,22.647-22.647h257.078V2190.513z"/>
				<g>
					
						<linearGradient id="SVGID_00000083795103110453608640000015197576090355152015_" gradientUnits="userSpaceOnUse" x1="-4794.9204" y1="2861.7971" x2="-4638.3618" y2="1032.0204" gradientTransform="matrix(-0.7539 -0.657 -0.657 0.7539 -766.4053 -1937.2426)">
						<stop  offset="0" style="stop-color:#C4421B"/>
						<stop  offset="1" style="stop-color:#5C0E16"/>
					</linearGradient>
					<path style="fill:url(#SVGID_00000083795103110453608640000015197576090355152015_);" d="M1644.795,2566.043l-29.627,48.499
						c0,0-236.297,222.628-325.473,316.333c-13.982,14.692-23.184,33.231-26.511,53.236l-17.354,104.34l-51.629-155.311
						l11.373-10.099l36.051-13.473l214.986-292.728c12.628-17.197,29.945-30.391,49.877-38.005l57.964-22.141L1644.795,2566.043z"/>
					
						<linearGradient id="SVGID_00000076569376760267102970000000668965653520633787_" gradientUnits="userSpaceOnUse" x1="1354.1768" y1="3006.667" x2="1728.9054" y2="1997.3971">
						<stop  offset="0" style="stop-color:#7C27DD"/>
						<stop  offset="1" style="stop-color:#2B41D9"/>
					</linearGradient>
					<path style="fill:url(#SVGID_00000076569376760267102970000000668965653520633787_);" d="M1268.965,2851.347
						c4.896,33.689,27.724,49.401,55.362,60.291l302.277-303.888l158.596-377.146l36.279-223.543l-65.165-16.309
						c-147.954,28.682-167.278,314.946-198.68,568.548C1462.913,2557.595,1368.769,2708.267,1268.965,2851.347z"/>
					
						<linearGradient id="SVGID_00000143600364199496185820000016120121027458122170_" gradientUnits="userSpaceOnUse" x1="1193.7111" y1="3140.2993" x2="1270.3259" y2="2870.4812">
						<stop  offset="0" style="stop-color:#2B3582"/>
						<stop  offset="1" style="stop-color:#150E42"/>
					</linearGradient>
					<path style="fill:url(#SVGID_00000143600364199496185820000016120121027458122170_);" d="M1237.533,2907.203
						c0,0-73.242,11.761-55.385,66.519c17.856,54.758,45.234,155.94,80.946,135.705c35.711-20.237-5.202-132.406,12.8-160.268
						C1241.797,2922.507,1237.533,2907.203,1237.533,2907.203z"/>
				</g>
				<g>
					
						<linearGradient id="SVGID_00000134950473421292529050000000673236595011527840_" gradientUnits="userSpaceOnUse" x1="-3989.9097" y1="3595.9453" x2="-3833.3503" y2="1766.1575" gradientTransform="matrix(-1 0 0 1 -2140.7312 0)">
						<stop  offset="0" style="stop-color:#C4421B"/>
						<stop  offset="1" style="stop-color:#5C0E16"/>
					</linearGradient>
					<path style="fill:url(#SVGID_00000134950473421292529050000000673236595011527840_);" d="M1831.333,2544.926l9.525,56.028
						c0,0-31.896,323.083-37.569,452.315c-0.89,20.261,4.352,40.284,14.985,57.553l55.463,90.065l-140.957-83.177l-2.805-17.201
						l23.074-31.725l-30.223-361.932c-1.776-21.262,2.612-42.585,12.637-61.419l29.155-54.772L1831.333,2544.926z"/>
					
						<linearGradient id="SVGID_00000104665492493830987750000000847440183792451721_" gradientUnits="userSpaceOnUse" x1="1594.7708" y1="3095.9958" x2="1969.5012" y2="2086.7207">
						<stop  offset="0" style="stop-color:#7C27DD"/>
						<stop  offset="1" style="stop-color:#2B41D9"/>
					</linearGradient>
					<path style="fill:url(#SVGID_00000104665492493830987750000000847440183792451721_);" d="M1923.738,2007.061
						c32.547,60.637-3.162,232.536-81.222,584.639l-36.06,406.199c-22.886,18.777-46.746,25.309-71.63,18.981
						c-23.408-202.625-31.822-348.781,22.986-432.654l13.033-336.97l49.675-231.318L1923.738,2007.061z"/>
					
						<linearGradient id="SVGID_00000048502064344639540910000005892489098522010773_" gradientUnits="userSpaceOnUse" x1="1955.022" y1="2908.8303" x2="1725.1881" y2="3308.5413">
						<stop  offset="0" style="stop-color:#2B3582"/>
						<stop  offset="1" style="stop-color:#150E42"/>
					</linearGradient>
					<path style="fill:url(#SVGID_00000048502064344639540910000005892489098522010773_);" d="M1742.829,3082.837
						c0,0-62.117,64.029-14.913,78.539c47.203,14.509,169.408,63.113,176.882,39.512c9.33-29.461-98.417-118.051-98.417-118.051
						C1787.871,3092.45,1755.417,3093.899,1742.829,3082.837z"/>
				</g>
				
					<linearGradient id="SVGID_00000167366632709460652780000012518285644760544180_" gradientUnits="userSpaceOnUse" x1="1518.1963" y1="2100.9175" x2="1987.8811" y2="1654.5499">
					<stop  offset="0" style="stop-color:#A737D5"/>
					<stop  offset="1" style="stop-color:#EF497A"/>
				</linearGradient>
				<path style="fill:url(#SVGID_00000167366632709460652780000012518285644760544180_);" d="M1756.312,1990.752
					c48.2-204.246-53.509-356.827-53.509-356.827c58.008-55.681,148.087-59.363,189.063-57.783
					c14.138,0.545,27.657,5.713,38.645,14.624c32.584,26.427,99.484,88.815,87.382,147.195c-9.314,44.926-94.156,269.1-94.156,269.1
					S1845.286,2044.19,1756.312,1990.752z"/>
				
					<linearGradient id="SVGID_00000022528072487573395400000016092346856463412636_" gradientUnits="userSpaceOnUse" x1="1889.7773" y1="1195.4961" x2="1853.1349" y2="1685.1676">
					<stop  offset="0" style="stop-color:#C4421B"/>
					<stop  offset="1" style="stop-color:#5C0E16"/>
				</linearGradient>
				<path style="fill:url(#SVGID_00000022528072487573395400000016092346856463412636_);" d="M1847.373,1428.405l-39.233,163.386
					c-3.751,15.505,10.32,20.339,26.103,22.652c37.099,5.437,65.189-8.607,69.819-34.783c0.405-2.289,1.688-4.331,2.005-6.635
					l16.836-122.059c1.336-9.684-3.899-19.083-12.836-23.045l-32.489-14.406C1865.069,1407.967,1850.591,1415.105,1847.373,1428.405
					z"/>
				<g>
					
						<linearGradient id="SVGID_00000011722279548806647920000004253840570572094869_" gradientUnits="userSpaceOnUse" x1="5194.4663" y1="1447.5389" x2="5450.3291" y2="1621.3324" gradientTransform="matrix(-0.991 0.1338 0.1338 0.991 6930.0884 -782.9296)">
						<stop  offset="0" style="stop-color:#C4421B"/>
						<stop  offset="1" style="stop-color:#5C0E16"/>
					</linearGradient>
					<path style="fill:url(#SVGID_00000011722279548806647920000004253840570572094869_);" d="M1883.959,1295.796
						c0,0,55.19,15,100.879,85.659c45.689,70.66,23.878,109.076-8.779,118.354c-32.656,9.278-82.559,15.272-141.818-26.357
						C1774.982,1431.821,1812.555,1278.823,1883.959,1295.796z"/>
					
						<linearGradient id="SVGID_00000008837025117703737320000006185260667485482370_" gradientUnits="userSpaceOnUse" x1="1746.6261" y1="1514.1826" x2="1889.8629" y2="1197.7289">
						<stop  offset="0" style="stop-color:#2B3582"/>
						<stop  offset="1" style="stop-color:#150E42"/>
					</linearGradient>
					<path style="fill:url(#SVGID_00000008837025117703737320000006185260667485482370_);" d="M1864.215,1428.389
						c0,0-54.295-105.071,43.399-119.587l25.202,12.988c0,0-8.862-50.806-71.745-72.066c-62.882-21.26-110.806,1.38-125.169,84.171
						c-14.364,82.791,7.24,132.084,54.095,164.442c46.857,32.359,58.239-13.04,58.239-13.04s-27.521-32.466-20.836-52.726
						c6.685-20.26,31.118-0.196,31.118-0.196L1864.215,1428.389z"/>
					
						<linearGradient id="SVGID_00000018201013664719867220000007803078002256249510_" gradientUnits="userSpaceOnUse" x1="1694.4851" y1="1270.7468" x2="1517.9384" y2="1820.3751">
						<stop  offset="0" style="stop-color:#2B3582"/>
						<stop  offset="1" style="stop-color:#150E42"/>
					</linearGradient>
					<path style="fill:url(#SVGID_00000018201013664719867220000007803078002256249510_);" d="M1748.876,1417.405
						c0,0-189.727-58.371-220.957,139.526c-31.229,197.897-52.801,261.336-99.842,227.212c0,0,7.747,73.933,98.071,40.889
						C1760.601,1739.257,1617.908,1464.61,1748.876,1417.405z"/>
				</g>
			</g>
			<g>
				
					<linearGradient id="SVGID_00000031206532516703800110000004592288003520363180_" gradientUnits="userSpaceOnUse" x1="1484.5498" y1="2080.7817" x2="1820.9904" y2="1571.1238">
					<stop  offset="0" style="stop-color:#A737D5"/>
					<stop  offset="1" style="stop-color:#EF497A"/>
				</linearGradient>
				<path style="fill:url(#SVGID_00000031206532516703800110000004592288003520363180_);" d="M1518.759,2078.177
					c-54.718-233.58,184.044-444.252,184.044-444.252c56.917,13.036,71.501,50.544,56.179,105.336
					c-112.359,105.336-154.493,224.718-163.123,325.15C1580.634,2059.976,1543.972,2052.971,1518.759,2078.177z"/>
				
					<linearGradient id="SVGID_00000015313363415011008770000015514707442457905330_" gradientUnits="userSpaceOnUse" x1="880.7424" y1="2087.1851" x2="770.1312" y2="2299.8989" gradientTransform="matrix(-1 0 0 1 2436.9724 0)">
					<stop  offset="0" style="stop-color:#C4421B"/>
					<stop  offset="1" style="stop-color:#5C0E16"/>
				</linearGradient>
				<path style="fill:url(#SVGID_00000015313363415011008770000015514707442457905330_);" d="M1595.86,2064.411
					c-10.671,44.087-9.549,76.98-7.926,92.685c0.58,5.611,3.392,10.19,9.33,10.461c2.757,0.125,5.58-0.283,8.241,0.45
					c2.661,0.732,5.181,3.142,4.767,5.871c-0.197,1.296-1.013,2.421-1.314,3.698c-0.594,2.512,0.955,5.119,3.038,6.643
					c2.083,1.524,4.632,2.231,7.063,3.1c9.645,3.445,19.794,9.707,28.892,14.403c2.666,1.376,3.131,5.01,2.688,7.978
					c-3.93,26.35-40.823,23.844-58.478,14.721c-10.777-5.57-20.558-14.524-27.165-24.733
					c-27.104-41.88-41.116-82.832-46.236-121.509C1543.972,2052.971,1580.634,2059.976,1595.86,2064.411z"/>
			</g>
			
				<linearGradient id="SVGID_00000149376048400526356990000003830966749076102303_" gradientUnits="userSpaceOnUse" x1="1794.9413" y1="1632.3329" x2="1665.0284" y2="2088.6946">
				<stop  offset="0" style="stop-color:#FDF53F"/>
				<stop  offset="1" style="stop-color:#D93C65"/>
			</linearGradient>
			<path style="fill:url(#SVGID_00000149376048400526356990000003830966749076102303_);" d="M1726.128,1612.392
				c88.385,135.536-17.113,400.79-44.716,411.293c121.165-24.383,166.321-245.617,98.781-433.847
				C1760.36,1588.345,1740.073,1594.961,1726.128,1612.392z"/>
		</g>
		<g>
			<g>
				<g>
					
						<linearGradient id="SVGID_00000131367649347549597310000014272154320215218338_" gradientUnits="userSpaceOnUse" x1="2229.0808" y1="-4677.5688" x2="2733.3359" y2="-4503.6875" gradientTransform="matrix(0.0023 1 -1 0.0023 -3390.8447 -342.5823)">
						<stop  offset="0" style="stop-color:#F9B776"/>
						<stop  offset="1" style="stop-color:#F47960"/>
					</linearGradient>
					<path style="fill:url(#SVGID_00000131367649347549597310000014272154320215218338_);" d="M1291.965,2291.43
						c10.274-20.655,1.607-45.308-16.003-63.73c-12.176-12.738-18.524-29.998-17.703-47.599
						c3.777-80.964-34.075-329.562-72.04-359.927c-66.102-52.869,17.609,389.83,36.274,402.734
						c20.833,5.71,4.396,93.862-5.658,108.23C1200.124,2355.021,1267.846,2339.916,1291.965,2291.43z"/>
					
						<linearGradient id="SVGID_00000154419667658844257320000004055941958852161447_" gradientUnits="userSpaceOnUse" x1="1160.541" y1="1663.6897" x2="1260.0289" y2="2369.1521">
						<stop  offset="0" style="stop-color:#FDF53F"/>
						<stop  offset="1" style="stop-color:#D93C65"/>
					</linearGradient>
					<path style="fill:url(#SVGID_00000154419667658844257320000004055941958852161447_);" d="M1183.935,2109.244
						c20.78-24.362,42.806-42.239,67.513-46.17c4.436-0.706,7.555-4.741,7.215-9.22l-26.61-350.627l-118.307,96.199
						L1183.935,2109.244z"/>
					<g>
						
							<linearGradient id="SVGID_00000168110280740473841220000002833592034569341864_" gradientUnits="userSpaceOnUse" x1="1458.5817" y1="2013.8193" x2="928.8844" y2="2863.3323">
							<stop  offset="0" style="stop-color:#2B3582"/>
							<stop  offset="1" style="stop-color:#150E42"/>
						</linearGradient>
						<path style="fill:url(#SVGID_00000168110280740473841220000002833592034569341864_);" d="M1316.677,2216.477l-177.547,85.917
							c-11.705,5.664-16.571,19.81-10.833,31.494l57.411,116.91c6.199,12.625,22.021,16.948,33.767,9.229l173.017-113.711
							c10.479-6.887,13.695-20.828,7.294-31.616l-52.881-89.115C1340.712,2215.148,1327.592,2211.196,1316.677,2216.477z"/>
						
							<ellipse transform="matrix(0.6106 -0.7919 0.7919 0.6106 -1332.8627 1932.2198)" style="opacity:0.26;fill:#FFFFFF;" cx="1298.412" cy="2321.476" rx="32.915" ry="32.915"/>
						<path style="opacity:0.26;fill:#FFFFFF;" d="M1164.902,2328.76l5.648-2.839c0.392-0.197,0.875-0.038,1.072,0.355l46.269,92.05
							c0.197,0.393,0.038,0.875-0.355,1.073l-5.648,2.839c-0.393,0.197-0.875,0.038-1.073-0.355l-46.269-92.05
							C1164.349,2329.44,1164.509,2328.958,1164.902,2328.76z"/>
						<path style="opacity:0.26;fill:#FFFFFF;" d="M1181.957,2320.188l5.648-2.839c0.392-0.197,0.875-0.038,1.072,0.355
							l46.269,92.05c0.197,0.392,0.038,0.875-0.355,1.072l-5.648,2.839c-0.392,0.197-0.875,0.038-1.073-0.355l-46.269-92.05
							C1181.405,2320.867,1181.565,2320.385,1181.957,2320.188z"/>
					</g>
					
						<linearGradient id="SVGID_00000036225400436419154060000003521599924962064041_" gradientUnits="userSpaceOnUse" x1="3061.9739" y1="-1408.6338" x2="3608.6506" y2="-1220.1246" gradientTransform="matrix(0.4764 0.8792 0.8792 -0.4764 698.6832 -1383.6906)">
						<stop  offset="0" style="stop-color:#F9B776"/>
						<stop  offset="1" style="stop-color:#F47960"/>
					</linearGradient>
					<path style="fill:url(#SVGID_00000036225400436419154060000003521599924962064041_);" d="M1230.146,2214.33
						c0,0-31.706,29.671-24.337,63.446c7.37,33.776,12.901,30.384,18.743,21.802
						C1230.396,2290.997,1253.286,2217.056,1230.146,2214.33z"/>
				</g>
			</g>
			
				<linearGradient id="SVGID_00000043444840650919931320000004350897122778587795_" gradientUnits="userSpaceOnUse" x1="1097.0885" y1="1462.7727" x2="679.2761" y2="2266.259">
				<stop  offset="0" style="stop-color:#CB236D"/>
				<stop  offset="1" style="stop-color:#4C246D"/>
			</linearGradient>
			<path style="fill:url(#SVGID_00000043444840650919931320000004350897122778587795_);" d="M991.189,2228.17H757.929
				c-28.063,0-50.812-22.75-50.812-50.812c-48.272-169.255-26.049-365.52,30.823-582.226c7.381-28.125,32.865-47.709,61.942-47.709
				h191.308V2228.17z"/>
			
				<linearGradient id="SVGID_00000106143227394632151150000014832344424654998162_" gradientUnits="userSpaceOnUse" x1="719.2312" y1="1706.7284" x2="1248.8749" y2="1513.5245">
				<stop  offset="0" style="stop-color:#CB236D"/>
				<stop  offset="1" style="stop-color:#4C246D"/>
			</linearGradient>
			<path style="fill:url(#SVGID_00000106143227394632151150000014832344424654998162_);" d="M803.383,1532.465
				c-37.519,0-70.324,25.29-79.872,61.574l-37.933,144.161c-8.287,31.495,16.352,62.522,55.45,69.826l71.876,13.428l230.595-321.264
				L803.383,1532.465z"/>
			<g>
				
					<linearGradient id="SVGID_00000153698809048387621430000002794981188503863458_" gradientUnits="userSpaceOnUse" x1="872.8105" y1="2960.6516" x2="1265.88" y2="2307.7576">
					<stop  offset="0" style="stop-color:#7C27DD"/>
					<stop  offset="1" style="stop-color:#2B41D9"/>
				</linearGradient>
				<path style="fill:url(#SVGID_00000153698809048387621430000002794981188503863458_);" d="M1167.851,2149.972l-221.093-7.964
					c0,0-50.261,72.581-51.455,89.902c-0.632,9.152-1.091,17.882-1.41,26.26l-40.31,365.812
					c-1.309,11.873-5.19,23.319-11.373,33.539l-151.274,258.766c-5.448,8.437-18.137,23.074-11.904,30.95
					c7.178,9.074,6.005,25.309,22.617,32.141c6.255,2.571,35.451-26.739,39.907-31.824l225.825-257.731
					c7.43-8.479,12.726-18.609,15.445-29.549l64.622-240.436c40.939,120.391,89.512,518.76,98.216,598.822
					c0.911,8.382,4.908,97.189,13.307,97.935c15.731,1.398,30.259-3.464,43.374-5.403c8.899-1.32,5.884-68.649,6.463-77.627
					C1240.56,2541.154,1167.851,2149.972,1167.851,2149.972z"/>
				
					<linearGradient id="SVGID_00000153664126043068040630000007621514916579168445_" gradientUnits="userSpaceOnUse" x1="822.2974" y1="2375.1008" x2="608.0274" y2="3313.1272">
					<stop  offset="0" style="stop-color:#2B3582"/>
					<stop  offset="1" style="stop-color:#150E42"/>
				</linearGradient>
				<path style="fill:url(#SVGID_00000153664126043068040630000007621514916579168445_);" d="M678.471,2936.668
					c0,0-73.242,11.761-55.385,66.519c17.856,54.758,45.234,155.941,80.946,135.705c35.711-20.237-19.329-138.667,9.099-165.002
					C679.034,2947.239,678.471,2936.668,678.471,2936.668z"/>
				
					<linearGradient id="SVGID_00000099656992325982863900000002847219961208466567_" gradientUnits="userSpaceOnUse" x1="1015.9853" y1="2971.2463" x2="1633.296" y2="3588.5571">
					<stop  offset="0" style="stop-color:#2B3582"/>
					<stop  offset="1" style="stop-color:#150E42"/>
				</linearGradient>
				<path style="fill:url(#SVGID_00000099656992325982863900000002847219961208466567_);" d="M1156.379,3110.322
					c0,0-47.616,69.042,0,82.136c47.615,13.094,142.846,47.29,169.034,21.264c26.189-26.026-120.984-107.967-120.984-107.967
					C1186.215,3115.917,1169.292,3121.004,1156.379,3110.322z"/>
			</g>
			<g>
				
					<linearGradient id="SVGID_00000001649676895596328890000005565036856914986120_" gradientUnits="userSpaceOnUse" x1="1104.2102" y1="1510.3405" x2="612.7419" y2="2994.4739">
					<stop  offset="0" style="stop-color:#FDF53F"/>
					<stop  offset="1" style="stop-color:#D93C65"/>
				</linearGradient>
				<path style="fill:url(#SVGID_00000001649676895596328890000005565036856914986120_);" d="M1269.984,1728.408
					c23.207-85.138-32.548-171.172-119.578-185.759c-96.933-16.248-195.796-0.495-244.361,2.65
					c-24.655,1.598-47.763,12.302-65.018,29.982c-68.43,70.116-221.031,264.184-68.273,478.338
					c21.845-10.448,53.017-27.438,74.733-47.971c-15.145-52.613-12.645-118.522,30.542-196.908
					c0.921,6.478,2.154,12.909,3.741,19.261c42.609,170.321,37.006,309.574,34.94,341.716c-0.274,4.26,1.936,8.392,5.792,10.224
					c67.686,32.187,179.807,25.458,225.152,21.489c8.302-0.727,25.955-1.977,28.439-9.934
					C1209.311,2085.079,1233.112,1863.672,1269.984,1728.408z"/>
				
					<linearGradient id="SVGID_00000076565830231158293790000002407676347122675098_" gradientUnits="userSpaceOnUse" x1="727.4683" y1="1478.7344" x2="996.8157" y2="1885.0388">
					<stop  offset="0" style="stop-color:#FDF53F"/>
					<stop  offset="1" style="stop-color:#D93C65"/>
				</linearGradient>
				<path style="fill:url(#SVGID_00000076565830231158293790000002407676347122675098_);" d="M880.5,1792.019
					c-19.147-68.204-9.596-145.339-6.932-163.411c0.319-2.166,2.362-3.616,4.518-3.237l0,0c2.074,0.365,3.483,2.29,3.175,4.373
					c-2.579,17.468-12.042,93.335,6.729,160.167c0.574,2.045-0.569,4.164-2.605,4.771l-0.004,0.001
					C883.302,1795.303,881.087,1794.109,880.5,1792.019z"/>
			</g>
			<g>
				
					<linearGradient id="SVGID_00000152254378318773639250000004338862148025173926_" gradientUnits="userSpaceOnUse" x1="1210.9834" y1="1687.2963" x2="796.3009" y2="2266.9097">
					<stop  offset="0" style="stop-color:#F9B776"/>
					<stop  offset="1" style="stop-color:#F47960"/>
				</linearGradient>
				<path style="fill:url(#SVGID_00000152254378318773639250000004338862148025173926_);" d="M847.488,2005.648
					c-21.717,20.533-52.889,37.523-74.733,47.971c29.192,40.925,69.525,82.583,123.738,124.251l6.527,17.412
					c4.842,12.921,13.644,23.978,25.147,31.596l21.906,14.507c11.932,7.899,27.683,6.796,38.396-2.691l9.496-8.41
					c8.685-7.691,9.878-20.814,2.723-29.945l-27.016-34.477c-4.72-6.024-38.306-11.282-44.629-15.595
					C905.412,2134.159,870.35,2085.067,847.488,2005.648z"/>
			</g>
			
				<linearGradient id="SVGID_00000154397938458493183040000005795403782616233653_" gradientUnits="userSpaceOnUse" x1="1083.7749" y1="1295.0111" x2="1043.7399" y2="2918.6396">
				<stop  offset="0" style="stop-color:#F9B776"/>
				<stop  offset="1" style="stop-color:#F47960"/>
			</linearGradient>
			<path style="fill:url(#SVGID_00000154397938458493183040000005795403782616233653_);" d="M1040.806,1383.047l-27.04,163.581
				c-0.705,4.418,1.969,8.665,6.269,9.899c20.471,5.877,74.04,21.596,121.365-7.67l-14.229-133.423L1040.806,1383.047z"/>
			<g>
				
					<linearGradient id="SVGID_00000134247698289585110490000009750245361324477090_" gradientUnits="userSpaceOnUse" x1="376.6511" y1="355.0522" x2="176.4061" y2="619.96" gradientTransform="matrix(0.6854 -0.7281 0.7281 0.6854 583.2305 1318.7853)">
					<stop  offset="0" style="stop-color:#F9B776"/>
					<stop  offset="1" style="stop-color:#F47960"/>
				</linearGradient>
				<path style="fill:url(#SVGID_00000134247698289585110490000009750245361324477090_);" d="M1125.991,1258.493
					c1.922,1.809,81.124,157.345,81.124,157.345l-89.769,43.336l-96.969-136.263
					C1020.377,1322.911,1093.811,1228.2,1125.991,1258.493z"/>
				
					<linearGradient id="SVGID_00000116209968354611464000000002419842147123142332_" gradientUnits="userSpaceOnUse" x1="223.9649" y1="424.3141" x2="422.6441" y2="424.3141" gradientTransform="matrix(0.6854 -0.7281 0.7281 0.6854 583.2305 1318.7853)">
					<stop  offset="0" style="stop-color:#2B3582"/>
					<stop  offset="1" style="stop-color:#150E42"/>
				</linearGradient>
				<path style="fill:url(#SVGID_00000116209968354611464000000002419842147123142332_);" d="M1060.096,1326.684
					c-1.602,4.143-1.208,8.767,1.077,12.576l44.772,74.634c0.68,1.132,1.489,2.156,2.455,3.056
					c5.33,4.961,23.566,19.39,37.663-0.255c12.016-16.744,23.289-31.966,35.369-38.244c7.054-3.667,15.735-0.739,19.317,6.359
					c7.376,14.621,21.665,44.424,30.641,72.684c2.249,7.083-1.406,14.688-8.295,17.478c-18.177,7.365-54.103,20.683-85.983,25.083
					c-5.237,0.723-10.421-1.486-13.538-5.756c-13.716-18.79-52.373-71.299-65.569-84.444c-16.122-16.058-38.552-1.641-57.162-6.637
					c-0.915-0.246-1.877-0.544-2.504-1.255c-0.668-0.757-0.82-1.827-0.916-2.832c-0.558-5.839-0.192-11.765,1.081-17.491
					c0.418-1.878,0.934-3.753,0.989-5.676c0.112-3.916-1.681-7.596-3.256-11.183c-7.06-16.079-10.278-33.763-16.034-50.422
					c-0.782-2.264-1.576-4.606-1.402-6.996c0.117-1.602,0.664-3.139,1.27-4.626c4.742-11.641,13.631-21.432,24.49-27.693
					c9.381-5.409,27.872-5.035,32.445-16.131c1.513-3.671,5.979-5.682,8.679-8.469c4.305-4.444,7.962-9.795,11.868-14.598
					c4.575-5.627,9.779-11.636,16.925-12.87c4.358-0.753,8.792,0.421,13.058,1.584c7.271,1.983,14.72,4.05,20.813,8.485
					c7.878,5.735,12.593,14.758,16.703,23.593c2.006,4.312,3.98,8.965,3.266,13.667c-1.902,12.514-22.203,19.239-32.828,20.587
					C1075.482,1293.43,1064.511,1315.27,1060.096,1326.684z"/>
				
					<linearGradient id="SVGID_00000150802694901487038140000013949923836032895644_" gradientUnits="userSpaceOnUse" x1="87.4642" y1="562.7037" x2="245.3362" y2="400.7313" gradientTransform="matrix(0.6854 -0.7281 0.7281 0.6854 583.2305 1318.7853)">
					<stop  offset="0" style="stop-color:#F9B776"/>
					<stop  offset="1" style="stop-color:#F47960"/>
				</linearGradient>
				<path style="fill:url(#SVGID_00000150802694901487038140000013949923836032895644_);" d="M1077.527,1433.042
					c0,0-19.926-46.171-41.972-44.321c-22.047,1.85-39.399,23.813-12.076,48.502
					C1057.466,1467.934,1077.527,1433.042,1077.527,1433.042z"/>
			</g>
			
				<linearGradient id="SVGID_00000001663172889103421780000005702282143728984745_" gradientUnits="userSpaceOnUse" x1="780.222" y1="1825.0836" x2="1339.8455" y2="1418.6904">
				<stop  offset="0" style="stop-color:#CB236D"/>
				<stop  offset="1" style="stop-color:#4C246D"/>
			</linearGradient>
			<path style="fill:url(#SVGID_00000001663172889103421780000005702282143728984745_);" d="M868.669,1555.224
				c88.385,135.536,19.465,397.954-8.139,408.457c121.165-24.383,129.743-242.781,62.203-431.012
				C902.9,1531.176,882.614,1537.793,868.669,1555.224z"/>
			<g>
				
					<linearGradient id="SVGID_00000167396353450009335920000017489915580543101850_" gradientUnits="userSpaceOnUse" x1="-1625.0292" y1="802.4662" x2="-1706.7007" y2="896.5829" gradientTransform="matrix(0.6225 0.7826 -0.7826 0.6225 2782.7473 2005.1622)">
					<stop  offset="0" style="stop-color:#FDF53F"/>
					<stop  offset="1" style="stop-color:#D93C65"/>
				</linearGradient>
				<path style="fill:url(#SVGID_00000167396353450009335920000017489915580543101850_);" d="M1022.414,1236.142
					c-5.715,4.545-13.429,4.355-17.231-0.424c-3.802-4.78-2.251-12.34,3.463-16.885c5.715-4.545,13.429-4.355,17.231,0.425
					C1029.679,1224.037,1028.129,1231.596,1022.414,1236.142z"/>
				
					<linearGradient id="SVGID_00000088831314087657237700000006281193584836044958_" gradientUnits="userSpaceOnUse" x1="1098.6628" y1="1181.853" x2="1011.0425" y2="1449.5815">
					<stop  offset="0" style="stop-color:#FDF53F"/>
					<stop  offset="1" style="stop-color:#D93C65"/>
				</linearGradient>
				<path style="fill:url(#SVGID_00000088831314087657237700000006281193584836044958_);" d="M991.935,1377.297
					c-89.834-138.291,111.604-239.639,168.788-100.547c-55.972,25.625-112.37,60.062-159.669,101.786
					C998.269,1380.994,993.959,1380.412,991.935,1377.297z"/>
				
					<linearGradient id="SVGID_00000004534535839980327000000001110411497048205187_" gradientUnits="userSpaceOnUse" x1="1307.0801" y1="1233.3209" x2="1049.0869" y2="1348.5254">
					<stop  offset="0" style="stop-color:#FDF53F"/>
					<stop  offset="1" style="stop-color:#D93C65"/>
				</linearGradient>
				<path style="fill:url(#SVGID_00000004534535839980327000000001110411497048205187_);" d="M1042.055,1345.293
					c66.498-18.439,148.101-28.49,175.527-47.917c24.099-14.284,30.283-42.282,10.856-37.139l-72.286,17.627
					C1113.096,1290.517,1075.682,1314.202,1042.055,1345.293z"/>
			</g>
		</g>
		<g>
			<g>
				
					<linearGradient id="SVGID_00000045605657868054540920000012209233032736325800_" gradientUnits="userSpaceOnUse" x1="1946.1239" y1="121.5494" x2="2105.1702" y2="648.2265" gradientTransform="matrix(0.9825 0.1862 -0.1862 0.9825 476.91 113.5017)">
					<stop  offset="0" style="stop-color:#FDF53F"/>
					<stop  offset="1" style="stop-color:#D93C65"/>
				</linearGradient>
				<path style="fill:url(#SVGID_00000045605657868054540920000012209233032736325800_);" d="M2501.144,812.13l-93.403-54.634
					c-1.922-1.124-4.201-1.47-6.37-0.967l-118.972,27.585c-3.206,0.743-5.719,3.228-6.5,6.425c-0.78,3.197,0.306,6.561,2.809,8.698
					l73.312,62.582L2501.144,812.13z"/>
				
					<linearGradient id="SVGID_00000012471665026669371690000001027767936468340646_" gradientUnits="userSpaceOnUse" x1="1906.328" y1="1135.3704" x2="3385.4788" y2="395.7934">
					<stop  offset="0" style="stop-color:#FDF53F"/>
					<stop  offset="1" style="stop-color:#D93C65"/>
				</linearGradient>
				<path style="fill:url(#SVGID_00000012471665026669371690000001027767936468340646_);" d="M1707.347,938.533
					c0,0,1109.534-228.244,1153.383-215.439c43.849,12.805,122.78,56.951,145.701,56.452c22.921-0.498,103.445,11.508,84.063,69.26
					c-19.382,57.752-939.218,256.642-1047.746,222.313c-108.528-34.33-382.788-97.157-382.788-97.157
					S1633.9,935.545,1707.347,938.533z"/>
				
					<linearGradient id="SVGID_00000093867159724191625160000005387624790097583802_" gradientUnits="userSpaceOnUse" x1="1536.0139" y1="599.4561" x2="1244.0015" y2="-83.6437" gradientTransform="matrix(0.9825 0.1862 -0.1862 0.9825 476.91 113.5017)">
					<stop  offset="0" style="stop-color:#FDF53F"/>
					<stop  offset="1" style="stop-color:#D93C65"/>
				</linearGradient>
				<path style="fill:url(#SVGID_00000093867159724191625160000005387624790097583802_);" d="M2028.612,876.574l-162.619-85.109
					c-10.197-5.336-18.691-13.427-24.517-23.352l-67.817-115.525c-5.373-9.154-16.102-13.741-26.428-11.286
					c-33.061,7.862-101.63,25.109-101.763,32.943c-0.175,10.323,40.044,268.372,40.044,268.372L2028.612,876.574z"/>
				
					<linearGradient id="SVGID_00000108291723800762900460000012107002043524046523_" gradientUnits="userSpaceOnUse" x1="1541.9053" y1="211.8459" x2="1338.5339" y2="1306.9202" gradientTransform="matrix(0.9825 0.1862 -0.1862 0.9825 476.91 113.5017)">
					<stop  offset="0" style="stop-color:#FDF53F"/>
					<stop  offset="1" style="stop-color:#D93C65"/>
				</linearGradient>
				<path style="fill:url(#SVGID_00000108291723800762900460000012107002043524046523_);" d="M1718.697,975.355l-11.965,54.926
					c-2.019,9.268,0.314,18.586,6.345,25.907c6.03,7.32,15.076,11.109,24.558,10.903l56.657-1.233
					c8.948-0.195,17.38-3.889,23.11-10.762l98.258-117.67L1718.697,975.355z"/>
				
					<linearGradient id="SVGID_00000000903127132371248310000010954630674865699985_" gradientUnits="userSpaceOnUse" x1="2201.4346" y1="443.8424" x2="1953.7408" y2="827.1159" gradientTransform="matrix(0.9825 0.1862 -0.1862 0.9825 476.91 113.5017)">
					<stop  offset="0" style="stop-color:#FDF53F"/>
					<stop  offset="1" style="stop-color:#D93C65"/>
				</linearGradient>
				<path style="fill:url(#SVGID_00000000903127132371248310000010954630674865699985_);" d="M2307.118,1143.14
					c0,0,35.298,41.369,91.169,40.153c55.871-1.216,124.298-18.184,136.761-38.234c12.463-20.05,36.784-166.686-76.216-143.201
					C2345.832,1025.343,2214.903,1094.409,2307.118,1143.14z"/>
				
					<linearGradient id="SVGID_00000033326951406194850400000009657015889222585222_" gradientUnits="userSpaceOnUse" x1="1905.02" y1="868.4886" x2="2293.5093" y2="-565.5332" gradientTransform="matrix(0.9825 0.1862 -0.1862 0.9825 476.91 113.5017)">
					<stop  offset="0" style="stop-color:#FDF53F"/>
					<stop  offset="1" style="stop-color:#D93C65"/>
				</linearGradient>
				<path style="fill:url(#SVGID_00000033326951406194850400000009657015889222585222_);" d="M2240.229,993.712l263.72-52.646
					l-215.813,290.79c-3.026,4.077-7.618,6.702-12.667,7.241l-158.313,16.893c-6.853,0.731-13.53-2.476-17.242-8.282
					c-3.713-5.807-3.821-13.213-0.282-19.126L2240.229,993.712z"/>
				
					<linearGradient id="SVGID_00000165202986887930194200000008919950319619133614_" gradientUnits="userSpaceOnUse" x1="2089.3752" y1="1165.271" x2="2489.5781" y2="867.5835" gradientTransform="matrix(0.9962 0.0868 -0.0868 0.9962 228.6686 -74.8815)">
					<stop  offset="0" style="stop-color:#FDF53F"/>
					<stop  offset="1" style="stop-color:#D93C65"/>
				</linearGradient>
				<path style="fill:url(#SVGID_00000165202986887930194200000008919950319619133614_);" d="M2520.57,1149.406
					c0.684,0.128,1.346,0.141,1.991,0.04c3.531-0.551,6.996-4.305,10.303-11.16c10.63-22.042,16.619-68.844-3.341-103.877l0,0
					c-5.916-10.376-16.554-16.876-28.476-17.435c-9.788-0.439-22.196,2.76-25.737,20.509c-5.548,27.822,22.497,90.98,37.92,107.075
					C2515.943,1147.391,2518.365,1148.994,2520.57,1149.406z M2504.842,1022.265c8.524,1.59,16.142,6.918,20.482,14.537l0,0
					c18.887,33.144,13.067,78.898,3.188,99.385c-2.862,5.94-5.394,8.285-6.691,8.484c-0.169,0.031-1.667,0.136-5.105-3.457
					c-16.042-16.743-41.57-78.212-36.668-102.79c2.336-11.711,9.133-17.147,20.779-16.625
					C2502.182,1021.86,2503.525,1022.019,2504.842,1022.265z"/>
				
					<linearGradient id="SVGID_00000129885200246761049780000002832424381466958242_" gradientUnits="userSpaceOnUse" x1="1684.4003" y1="1129.9292" x2="2114.1482" y2="1589.8931" gradientTransform="matrix(0.9997 -0.0262 0.0262 0.9997 -41.9282 -269.1272)">
					<stop  offset="0" style="stop-color:#FDF53F"/>
					<stop  offset="1" style="stop-color:#D93C65"/>
				</linearGradient>
				<polygon style="fill:url(#SVGID_00000129885200246761049780000002832424381466958242_);" points="1653.281,735.512 
					1680.786,734.914 1710.394,909.94 1681.63,917.325 				"/>
				<g>
					<g>
						
							<linearGradient id="SVGID_00000163060620208625439200000003610608753818917299_" gradientUnits="userSpaceOnUse" x1="3163.0313" y1="1035.9512" x2="2788.2554" y2="1195.5779" gradientTransform="matrix(0.9997 -0.0217 0.0217 0.9997 -187.252 -418.3804)">
							<stop  offset="0" style="stop-color:#2C759E"/>
							<stop  offset="1" style="stop-color:#051042"/>
						</linearGradient>
						<path style="fill:url(#SVGID_00000163060620208625439200000003610608753818917299_);" d="M2109.992,936.848
							c-0.197-9.049,6.979-16.543,16.027-16.74l1.042-0.023c9.048-0.197,16.543,6.979,16.74,16.027l0.233,10.701
							c0.197,9.048-6.978,16.543-16.027,16.74l-1.042,0.023c-9.048,0.197-16.543-6.979-16.74-16.027L2109.992,936.848z"/>
						
							<linearGradient id="SVGID_00000060733844178469024160000006509804720344808885_" gradientUnits="userSpaceOnUse" x1="3169.22" y1="1055.2314" x2="2794.4409" y2="1214.8594" gradientTransform="matrix(0.9997 -0.0217 0.0217 0.9997 -187.252 -418.3804)">
							<stop  offset="0" style="stop-color:#2C759E"/>
							<stop  offset="1" style="stop-color:#051042"/>
						</linearGradient>
						<path style="fill:url(#SVGID_00000060733844178469024160000006509804720344808885_);" d="M2172.675,930.651
							c-0.197-9.048,6.979-16.543,16.027-16.74l1.042-0.022c9.049-0.197,16.543,6.979,16.74,16.027l0.233,10.702
							c0.197,9.048-6.979,16.543-16.027,16.74l-1.042,0.022c-9.048,0.197-16.543-6.978-16.74-16.027L2172.675,930.651z"/>
						
							<linearGradient id="SVGID_00000057132209153553031470000016974379786353887162_" gradientUnits="userSpaceOnUse" x1="3175.4009" y1="1064.8517" x2="2800.6216" y2="1224.4797" gradientTransform="matrix(0.9997 -0.0217 0.0217 0.9997 -187.252 -418.3804)">
							<stop  offset="0" style="stop-color:#2C759E"/>
							<stop  offset="1" style="stop-color:#051042"/>
						</linearGradient>
						<path style="fill:url(#SVGID_00000057132209153553031470000016974379786353887162_);" d="M2235.147,914.796
							c-0.197-9.049,6.979-16.543,16.027-16.74l1.042-0.022c9.048-0.197,16.543,6.978,16.74,16.027l0.233,10.702
							c0.197,9.048-6.979,16.543-16.027,16.74l-1.042,0.023c-9.049,0.197-16.543-6.979-16.74-16.027L2235.147,914.796z"/>
						
							<linearGradient id="SVGID_00000024708257095428145500000016643499270991753624_" gradientUnits="userSpaceOnUse" x1="3176.7517" y1="1079.3033" x2="2801.9719" y2="1238.9318" gradientTransform="matrix(0.9997 -0.0217 0.0217 0.9997 -187.252 -418.3804)">
							<stop  offset="0" style="stop-color:#2C759E"/>
							<stop  offset="1" style="stop-color:#051042"/>
						</linearGradient>
						<path style="fill:url(#SVGID_00000024708257095428145500000016643499270991753624_);" d="M2292.895,903.875
							c-0.197-9.049,6.979-16.543,16.027-16.74l1.042-0.022c9.049-0.197,16.543,6.979,16.74,16.027l0.233,10.702
							c0.197,9.048-6.979,16.543-16.027,16.74l-1.042,0.023c-9.048,0.197-16.543-6.979-16.74-16.027L2292.895,903.875z"/>
						
							<linearGradient id="SVGID_00000148624517573595438970000008467542254331477644_" gradientUnits="userSpaceOnUse" x1="3187.7632" y1="1093.7554" x2="2812.9839" y2="1253.3835" gradientTransform="matrix(0.9997 -0.0217 0.0217 0.9997 -187.252 -418.3804)">
							<stop  offset="0" style="stop-color:#2C759E"/>
							<stop  offset="1" style="stop-color:#051042"/>
						</linearGradient>
						<path style="fill:url(#SVGID_00000148624517573595438970000008467542254331477644_);" d="M2360.302,892.744
							c-0.197-9.049,6.979-16.543,16.027-16.74l1.042-0.022c9.048-0.197,16.543,6.979,16.74,16.027l0.233,10.701
							c0.197,9.048-6.979,16.543-16.027,16.74l-1.042,0.023c-9.049,0.196-16.543-6.979-16.74-16.027L2360.302,892.744z"/>
						
							<linearGradient id="SVGID_00000132050274580320842350000012692343816046013852_" gradientUnits="userSpaceOnUse" x1="3193.9448" y1="1108.207" x2="2819.1653" y2="1267.8353" gradientTransform="matrix(0.9997 -0.0217 0.0217 0.9997 -187.252 -418.3804)">
							<stop  offset="0" style="stop-color:#2C759E"/>
							<stop  offset="1" style="stop-color:#051042"/>
						</linearGradient>
						<path style="fill:url(#SVGID_00000132050274580320842350000012692343816046013852_);" d="M2422.88,881.717
							c-0.197-9.049,6.979-16.543,16.027-16.74l1.042-0.023c9.049-0.197,16.543,6.979,16.74,16.027l0.233,10.701
							c0.197,9.048-6.979,16.543-16.027,16.74l-1.042,0.023c-9.049,0.197-16.543-6.979-16.74-16.027L2422.88,881.717z"/>
						
							<linearGradient id="SVGID_00000029043685250957349720000006455157126458804636_" gradientUnits="userSpaceOnUse" x1="3200.1213" y1="1117.8296" x2="2825.3447" y2="1277.4565" gradientTransform="matrix(0.9997 -0.0217 0.0217 0.9997 -187.252 -418.3804)">
							<stop  offset="0" style="stop-color:#2C759E"/>
							<stop  offset="1" style="stop-color:#051042"/>
						</linearGradient>
						<path style="fill:url(#SVGID_00000029043685250957349720000006455157126458804636_);" d="M2485.352,865.861
							c-0.197-9.048,6.978-16.543,16.027-16.74l1.042-0.023c9.048-0.197,16.543,6.979,16.74,16.027l0.233,10.701
							c0.197,9.049-6.979,16.543-16.027,16.74l-1.042,0.022c-9.048,0.197-16.543-6.979-16.74-16.027L2485.352,865.861z"/>
						
							<linearGradient id="SVGID_00000031923725318596760220000002598172452110542254_" gradientUnits="userSpaceOnUse" x1="3201.4751" y1="1137.1115" x2="2826.696" y2="1296.7395" gradientTransform="matrix(0.9997 -0.0217 0.0217 0.9997 -187.252 -418.3804)">
							<stop  offset="0" style="stop-color:#2C759E"/>
							<stop  offset="1" style="stop-color:#051042"/>
						</linearGradient>
						<path style="fill:url(#SVGID_00000031923725318596760220000002598172452110542254_);" d="M2543.204,859.77
							c-0.197-9.048,6.979-16.543,16.027-16.74l1.042-0.023c9.049-0.197,16.543,6.979,16.74,16.027l0.233,10.701
							c0.197,9.049-6.979,16.543-16.027,16.74l-1.042,0.022c-9.048,0.197-16.543-6.979-16.74-16.027L2543.204,859.77z"/>
						
							<linearGradient id="SVGID_00000085220048605196397330000002183146159202499222_" gradientUnits="userSpaceOnUse" x1="3207.655" y1="1151.5635" x2="2832.8767" y2="1311.1912" gradientTransform="matrix(0.9997 -0.0217 0.0217 0.9997 -187.252 -418.3804)">
							<stop  offset="0" style="stop-color:#2C759E"/>
							<stop  offset="1" style="stop-color:#051042"/>
						</linearGradient>
						<path style="fill:url(#SVGID_00000085220048605196397330000002183146159202499222_);" d="M2605.781,848.744
							c-0.196-9.049,6.979-16.543,16.027-16.74l1.042-0.022c9.049-0.197,16.543,6.979,16.74,16.027l0.233,10.702
							c0.197,9.048-6.979,16.543-16.027,16.74l-1.042,0.023c-9.048,0.197-16.543-6.979-16.74-16.027L2605.781,848.744z"/>
						
							<linearGradient id="SVGID_00000048485158994253386870000018226342859551509680_" gradientUnits="userSpaceOnUse" x1="3213.8374" y1="1161.1833" x2="2839.0576" y2="1320.8118" gradientTransform="matrix(0.9997 -0.0217 0.0217 0.9997 -187.252 -418.3804)">
							<stop  offset="0" style="stop-color:#2C759E"/>
							<stop  offset="1" style="stop-color:#051042"/>
						</linearGradient>
						<path style="fill:url(#SVGID_00000048485158994253386870000018226342859551509680_);" d="M2668.254,832.888
							c-0.197-9.049,6.979-16.543,16.027-16.74l1.042-0.023c9.048-0.197,16.543,6.979,16.74,16.027l0.233,10.701
							c0.197,9.048-6.979,16.543-16.027,16.74l-1.042,0.023c-9.049,0.197-16.543-6.979-16.74-16.027L2668.254,832.888z"/>
						
							<linearGradient id="SVGID_00000075134138028443022630000011006390415256322723_" gradientUnits="userSpaceOnUse" x1="3215.186" y1="1180.4675" x2="2840.4102" y2="1340.0941" gradientTransform="matrix(0.9997 -0.0217 0.0217 0.9997 -187.252 -418.3804)">
							<stop  offset="0" style="stop-color:#2C759E"/>
							<stop  offset="1" style="stop-color:#051042"/>
						</linearGradient>
						<path style="fill:url(#SVGID_00000075134138028443022630000011006390415256322723_);" d="M2726.107,826.797
							c-0.197-9.049,6.979-16.543,16.027-16.74l1.042-0.023c9.048-0.197,16.543,6.979,16.74,16.027l0.233,10.701
							c0.197,9.048-6.979,16.543-16.027,16.74l-1.042,0.023c-9.048,0.197-16.543-6.979-16.74-16.027L2726.107,826.797z"/>
					</g>
					
						<linearGradient id="SVGID_00000039126165799207528090000012443073345259121342_" gradientUnits="userSpaceOnUse" x1="3232.063" y1="1202.244" x2="2851.9304" y2="1364.1522" gradientTransform="matrix(0.9997 -0.0217 0.0217 0.9997 -187.252 -418.3804)">
						<stop  offset="0" style="stop-color:#2C759E"/>
						<stop  offset="1" style="stop-color:#051042"/>
					</linearGradient>
					<path style="fill:url(#SVGID_00000039126165799207528090000012443073345259121342_);" d="M2939.291,755.847l-109.499,32.99
						c-8.223,2.486-13.521,10.485-12.573,19.023c1.127,10.148,2.912,21.607,5.16,20.586c3.974-1.807,175.723-49.431,175.723-49.431
						L2939.291,755.847z"/>
				</g>
			</g>
		</g>
	</g>
</g>
</svg>
