<?xml version="1.0" encoding="UTF-8"?>
<svg version="1.1" xmlns="http://www.w3.org/2000/svg" width="1665" height="397">
<path d="M0 0 C549.45 0 1098.9 0 1665 0 C1665 131.01 1665 262.02 1665 397 C1115.55 397 566.1 397 0 397 C0 265.99 0 134.98 0 0 Z " fill="#FEFEFE" transform="translate(0,0)"/>
<path d="M0 0 C2.0679668 1.26732541 4.02760456 2.58392122 6 4 C6.86238281 3.52240234 6.86238281 3.52240234 7.7421875 3.03515625 C11.56045044 1.28456857 14.89690023 1.17173452 19 2 C23.9894918 4.43706391 28.71817096 7.45939993 31.125 12.625 C31.89974194 15.61329034 32.27819145 17.93989406 32 21 C37.71458098 19.67804775 39.72355241 15.57900159 42.6875 10.9375 C43.64588027 9.46492898 44.60794489 7.99474723 45.57421875 6.52734375 C45.99276123 5.87499756 46.41130371 5.22265137 46.8425293 4.55053711 C48 3 48 3 50 2 C50.70382813 3.00675781 51.40765625 4.01351562 52.1328125 5.05078125 C58.21533511 13.72383384 64.40060391 22.31015132 70.7043457 30.82373047 C75.33019708 37.07522545 79.8917831 43.37065107 84.42822266 49.68725586 C88.35179705 55.1386962 92.37860034 60.50016561 96.48828125 65.8125 C98 68 98 68 98 70 C101.8246079 66.27327968 105.3523717 62.37791323 108.8125 58.3125 C109.33513428 57.70325684 109.85776855 57.09401367 110.39624023 56.46630859 C114.21434457 51.99258204 117.85657845 47.40689936 121.37890625 42.6953125 C121.91386719 42.13585937 122.44882812 41.57640625 123 41 C123.99 41 124.98 41 126 41 C125.67 38.03 125.34 35.06 125 32 C126.65 32.33 128.3 32.66 130 33 C133.62870159 42.41002278 133.62870159 42.41002278 132 47 C131.34 47 130.68 47 130 47 C134.89324673 53.87042769 139.79848055 60.73160712 144.74682617 67.5625 C146.38714492 69.82928326 148.02194398 72.09997278 149.65625 74.37109375 C151.92706348 77.52492698 154.22212754 80.65928389 156.53125 83.78515625 C157.64617322 85.3148565 158.76076872 86.84479567 159.875 88.375 C160.40528809 89.08245361 160.93557617 89.78990723 161.48193359 90.51879883 C161.95969238 91.18032959 162.43745117 91.84186035 162.9296875 92.5234375 C163.56753174 93.388479 163.56753174 93.388479 164.21826172 94.27099609 C165.23975823 96.5302835 164.80783441 97.71186701 164 100 C161.525 100.495 161.525 100.495 159 101 C135.85888433 69.71576713 135.85888433 69.71576713 125 54 C121.37323035 55.47638411 119.61308453 57.41431938 117.25 60.5 C116.56421875 61.38429688 115.8784375 62.26859375 115.171875 63.1796875 C114.45515625 64.11039062 113.7384375 65.04109375 113 66 C111.50372688 67.87797544 110.00389893 69.7531258 108.5 71.625 C107.8296875 72.46289062 107.159375 73.30078125 106.46875 74.1640625 C105.9840625 74.76992187 105.499375 75.37578125 105 76 C106.561927 80.71271078 109.1922319 84.25660494 112.125 88.1875 C117 94.73450413 117 94.73450413 117 97 C117.70962891 96.36384766 117.70962891 96.36384766 118.43359375 95.71484375 C122.16609052 92.40434467 125.94452811 89.15144595 129.8125 86 C130.54082031 85.401875 131.26914062 84.80375 132.01953125 84.1875 C132.67308594 83.795625 133.32664062 83.40375 134 83 C137 84 137 84 138 86 C138.07621734 87.43683799 138.13674837 88.87453728 138.1875 90.3125 C138.57947953 94.20740773 138.7849186 94.78980681 141.75 97.6875 C142.8225 98.450625 143.895 99.21375 145 100 C150 105.18134715 150 105.18134715 150 108 C150.66 108 151.32 108 152 108 C153.35351563 109.47436523 153.35351563 109.47436523 154.90625 111.55859375 C155.76766602 112.71355347 155.76766602 112.71355347 156.64648438 113.8918457 C157.25814453 114.73191162 157.86980469 115.57197754 158.5 116.4375 C159.44069336 117.72563599 159.44069336 117.72563599 160.40039062 119.03979492 C182 149.03710738 182 149.03710738 182 161 C184.97 161 187.94 161 191 161 C191.38218767 162.65614657 191.71395102 164.32457024 192 166 C191.67 166.33 191.34 166.66 191 167 C190.38769531 166.96519531 189.77539062 166.93039062 189.14453125 166.89453125 C186.36667821 166.79681783 184.58450014 166.92775284 182 168 C179.3668705 171.7515309 177.72141855 175.77022871 176 180 C174.4632739 181.5367261 173.03898727 181.15409187 170.89595032 181.18754578 C170.01134628 181.20337204 169.12674225 181.2191983 168.21533203 181.23550415 C167.23717529 181.24761932 166.25901855 181.2597345 165.2512207 181.2722168 C163.71464058 181.29653023 163.71464058 181.29653023 162.14701843 181.32133484 C152.68749656 181.46162118 143.22702631 181.53964265 133.76669025 181.60025311 C127.40562947 181.64126306 121.04610362 181.70170408 114.68579102 181.80932617 C108.54421716 181.91290958 102.40401387 181.96762957 96.26161766 181.98771095 C93.91908922 182.0036728 91.57661267 182.03696569 89.2345829 182.08786583 C85.95333677 182.15576305 82.67755932 182.16086401 79.39575195 182.15112305 C78.42771637 182.18550476 77.45968079 182.21988647 76.46231079 182.25531006 C73.63965742 182.20759553 71.61400607 182.07952751 69 181 C66.99240526 178.53504239 65.64920026 176.14159313 64.31213856 173.26099491 C63.08825061 170.56522657 63.08825061 170.56522657 59.26123047 169.83300781 C57.22097202 169.79092889 57.22097202 169.79092889 55.1171875 169.953125 C54.38049835 169.96253113 53.6438092 169.97193726 52.88479614 169.98162842 C50.54428939 170.02412274 48.21305082 170.13707866 45.875 170.25 C44.29826313 170.28304441 42.72142859 170.31173289 41.14453125 170.3359375 C33.94502875 170.09070264 33.94502875 170.09070264 27.30032349 172.00595093 C23.8540595 173.49520039 20.40686569 173.29479838 16.71484375 173.29052734 C15.88187775 173.29724457 15.04891174 173.30396179 14.19070435 173.31088257 C11.43957544 173.32986787 8.68869031 173.33378667 5.9375 173.3359375 C4.02465718 173.34236381 2.11181535 173.34909204 0.19897461 173.35610962 C-3.80910523 173.36808281 -7.81709885 173.37179027 -11.82519531 173.37060547 C-16.96359101 173.37040199 -22.10143542 173.39773358 -27.23970032 173.43214989 C-31.18935695 173.45437203 -35.13887977 173.45844449 -39.08859253 173.45738602 C-40.98324488 173.45974791 -42.8779006 173.46860444 -44.77249146 173.48405075 C-47.42033726 173.50362121 -50.06697905 173.49790892 -52.71484375 173.48583984 C-53.49834198 173.49707886 -54.28184021 173.50831787 -55.08908081 173.51989746 C-58.64540429 173.47865253 -60.6040674 173.30724933 -63.45532227 171.09463501 C-65.69370136 168.0593176 -66.10438436 166.48906081 -66.03515625 162.78125 C-65.99404573 149.74668701 -65.99404573 149.74668701 -72.9921875 139.10546875 C-79.15466465 132.64326022 -79.43861089 124.56514959 -79.9375 116.0625 C-79.99542725 115.12559326 -80.05335449 114.18868652 -80.11303711 113.22338867 C-80.1466333 112.33627197 -80.18022949 111.44915527 -80.21484375 110.53515625 C-80.24698975 109.734729 -80.27913574 108.93430176 -80.31225586 108.10961914 C-79.9249294 105.49281856 -79.01099893 104.64572305 -77 103 C-78.08784968 99.75016865 -78.08784968 99.75016865 -80 97 C-80.04063832 95.33382885 -80.042721 93.66611905 -80 92 C-78.515 91.505 -78.515 91.505 -77 91 C-77.12375 89.6696875 -77.12375 89.6696875 -77.25 88.3125 C-76.93764029 84.17373382 -76.1190035 82.71913126 -73 80 C-69.5 79.375 -69.5 79.375 -66 80 C-62.8809965 82.71913126 -62.06235971 84.17373382 -61.75 88.3125 C-61.8325 89.199375 -61.915 90.08625 -62 91 C-60.68 91.66 -59.36 92.32 -58 93 C-58.75 97.75 -58.75 97.75 -61 100 C-61.33 100.99 -61.66 101.98 -62 103 C-60.515 103.99 -60.515 103.99 -59 105 C-59 106.96639416 -59.00802529 108.93391281 -59.09375 110.8984375 C-58.95360279 114.04007073 -57.53622833 116.31160043 -56 119 C-56 119.66 -56 120.32 -56 121 C-55.34 121 -54.68 121 -54 121 C-54.020625 120.030625 -54.04125 119.06125 -54.0625 118.0625 C-54 115 -54 115 -53 114 C-50.69006618 113.87442838 -48.37581464 113.82424271 -46.0625 113.8125 C-44.79535156 113.79832031 -43.52820313 113.78414063 -42.22265625 113.76953125 C-39 114 -39 114 -37 116 C-36.875 118.625 -36.875 118.625 -37 121 C-34.56122765 118.76742123 -33.01539481 116.52357792 -31.4375 113.625 C-31.02371094 112.87476563 -30.60992187 112.12453125 -30.18359375 111.3515625 C-28.90909951 109.00307946 -28.90909951 109.00307946 -28.23046875 106.29296875 C-27 104 -27 104 -24.1796875 103.07421875 C-23.08914062 102.94660156 -21.99859375 102.81898438 -20.875 102.6875 C-19.77929688 102.54699219 -18.68359375 102.40648437 -17.5546875 102.26171875 C-16.71164063 102.17535156 -15.86859375 102.08898437 -15 102 C-15.99 101.01 -16.98 100.02 -18 99 C-16.1388256 93.22471944 -12.32225197 88.67966929 -8.72460938 83.8828125 C-5.85693249 80.00550774 -5.85693249 80.00550774 -4.8515625 75.41796875 C-6.46764007 72.01541086 -8.68350533 69.20198046 -11.0625 66.3125 C-16 60.24334925 -16 60.24334925 -16 58 C-19.98852657 61.79308152 -23.29605531 65.82688226 -26.5625 70.25 C-27.07627197 70.9394873 -27.59004395 71.62897461 -28.11938477 72.33935547 C-32.48622104 78.23123452 -36.72561661 84.21150056 -40.90258789 90.23925781 C-43.75745653 94.3378954 -46.74634168 98.20898613 -50 102 C-51.65 101.67 -53.3 101.34 -55 101 C-55.64306641 99.23095703 -55.64306641 99.23095703 -56 97 C-55.12646484 95.17919922 -55.12646484 95.17919922 -53.7109375 93.3046875 C-53.18798096 92.59795898 -52.66502441 91.89123047 -52.1262207 91.16308594 C-51.54831787 90.40801758 -50.97041504 89.65294922 -50.375 88.875 C-49.16763817 87.25285016 -47.96061645 85.63044714 -46.75390625 84.0078125 C-46.13016113 83.17797852 -45.50641602 82.34814453 -44.86376953 81.49316406 C-41.96404327 77.61420093 -39.1401057 73.68166183 -36.3125 69.75 C-35.77689453 69.00991699 -35.24128906 68.26983398 -34.68945312 67.50732422 C-32.12501421 63.96360781 -29.57752999 60.40985653 -27.06640625 56.828125 C-26.61031982 56.18004883 -26.1542334 55.53197266 -25.68432617 54.86425781 C-24.83746635 53.65847344 -23.99487793 52.44967288 -23.1574707 51.23730469 C-21.24342394 48.51602054 -19.81200134 46.87466756 -17 45 C-14.74649757 47.87226988 -12.49784134 50.74829829 -10.25 53.625 C-9.61578125 54.43324219 -8.9815625 55.24148437 -8.328125 56.07421875 C-5.04130103 60.28546196 -1.88256924 64.50144497 1 69 C6.3016954 62.35291252 11.23211654 55.49509384 16.0625 48.5 C16.74376953 47.51902344 17.42503906 46.53804687 18.12695312 45.52734375 C22.14927936 39.7237568 26.08177944 33.87733084 30 28 C-3.66 28 -37.32 28 -72 28 C-72.33 26.35 -72.66 24.7 -73 23 C-69.97906785 19.97906785 -66.43627928 20.53323166 -62.375 20.375 C-61.17230469 20.31699219 -61.17230469 20.31699219 -59.9453125 20.2578125 C-57.96392444 20.16346069 -55.98199355 20.08063785 -54 20 C-53.84144531 19.39671875 -53.68289062 18.7934375 -53.51953125 18.171875 C-51.72094932 12.01098663 -49.84860737 9.13190491 -44.1171875 5.95703125 C-41.90285329 4.95608682 -39.952215 4.5308788 -37.5625 4.125 C-33.40911317 3.2645104 -31.2250938 1.80073935 -28 -1 C-18.89003938 -6.20569179 -8.88551966 -5.18760122 0 0 Z " fill="#FCFCFD" transform="translate(139,116)"/>
<path d="M0 0 C3.5 0.625 3.5 0.625 5.9375 2.75 C7.70830209 6.00827585 7.83975517 7.97263197 7.5 11.625 C8.82 12.285 10.14 12.945 11.5 13.625 C10.75 18.375 10.75 18.375 8.5 20.625 C8.17 21.615 7.84 22.605 7.5 23.625 C8.49 24.285 9.48 24.945 10.5 25.625 C10.5 27.59139416 10.49197471 29.55891281 10.40625 31.5234375 C10.54639721 34.66507073 11.96377167 36.93660043 13.5 39.625 C13.5 40.285 13.5 40.945 13.5 41.625 C14.16 41.625 14.82 41.625 15.5 41.625 C15.479375 40.655625 15.45875 39.68625 15.4375 38.6875 C15.5 35.625 15.5 35.625 16.5 34.625 C18.80993382 34.49942838 21.12418536 34.44924271 23.4375 34.4375 C24.70464844 34.42332031 25.97179687 34.40914062 27.27734375 34.39453125 C30.5 34.625 30.5 34.625 32.5 36.625 C32.625 39.25 32.625 39.25 32.5 41.625 C34.93877235 39.39242123 36.48460519 37.14857792 38.0625 34.25 C38.47628906 33.49976563 38.89007813 32.74953125 39.31640625 31.9765625 C40.52707955 29.57119839 41.53639561 27.13836445 42.5 24.625 C59.58480974 23.25483209 59.58480974 23.25483209 63.95703125 26.3828125 C65.47624911 28.74782183 66.52365706 30.99221197 67.5 33.625 C68.71238805 36.09991245 69.99790047 38.29916846 71.5 40.625 C74.12102997 41.67010361 74.12102997 41.67010361 76.5 41.625 C76.45875 40.84125 76.4175 40.0575 76.375 39.25 C76.5 36.625 76.5 36.625 78.5 34.625 C81.03125 34.39453125 81.03125 34.39453125 84 34.4375 C85.46953125 34.44716797 85.46953125 34.44716797 86.96875 34.45703125 C89.5 34.625 89.5 34.625 91.5 35.625 C92.125 38.6875 92.125 38.6875 92.5 41.625 C93.44875 41.8725 94.3975 42.12 95.375 42.375 C98.5 43.625 98.5 43.625 99.68310547 45.17285156 C100.88740754 48.78791731 100.74481414 52.34335269 100.6953125 56.109375 C100.69329834 56.8327002 100.69128418 57.55602539 100.68920898 58.30126953 C100.67877756 60.99257791 100.65085496 63.6837956 100.625 66.375 C100.58375 72.3975 100.5425 78.42 100.5 84.625 C115.68 84.625 130.86 84.625 146.5 84.625 C146.83 83.305 147.16 81.985 147.5 80.625 C145.58574219 80.22667969 145.58574219 80.22667969 143.6328125 79.8203125 C141.96345798 79.46393345 140.29419164 79.10714116 138.625 78.75 C137.36236328 78.48896484 137.36236328 78.48896484 136.07421875 78.22265625 C135.26855469 78.04863281 134.46289062 77.87460937 133.6328125 77.6953125 C132.88918457 77.53820801 132.14555664 77.38110352 131.37939453 77.21923828 C129.5 76.625 129.5 76.625 127.5 74.625 C128.03846107 71.54108658 128.69483042 68.64104959 129.5 65.625 C129.74363281 64.66851562 129.98726562 63.71203125 130.23828125 62.7265625 C131.35208116 58.46556387 132.39595805 54.51566378 134.5 50.625 C155.29245283 52.41745283 155.29245283 52.41745283 159.5 56.625 C159.19193622 65.71288151 156.97947469 76.65032981 152.5 84.625 C154.93922361 84.53799202 157.37478414 84.43113998 159.8125 84.3125 C160.50279297 84.28994141 161.19308594 84.26738281 161.90429688 84.24414062 C166.03087323 84.02485396 167.73718097 83.60034357 170.5 80.625 C176.8316448 79.7408514 183.10588304 80.52269176 189.25390625 82.11328125 C193.2804665 83.03063671 197.38978707 83.29892883 201.5 83.625 C201.5 81.315 201.5 79.005 201.5 76.625 C188.3 76.625 175.1 76.625 161.5 76.625 C158.4957889 61.60394452 169.25278715 42.54835284 177.3828125 30.26464844 C184.13243864 20.35851008 192.96138432 9.60169437 203.5 3.625 C206.5 4.625 206.5 4.625 207.5 6.625 C207.57621734 8.06183799 207.63674837 9.49953728 207.6875 10.9375 C208.07947953 14.83240773 208.2849186 15.41480681 211.25 18.3125 C212.3225 19.075625 213.395 19.83875 214.5 20.625 C219.5 25.80634715 219.5 25.80634715 219.5 28.625 C220.16 28.625 220.82 28.625 221.5 28.625 C222.85351562 30.09936523 222.85351562 30.09936523 224.40625 32.18359375 C225.26766602 33.33855347 225.26766602 33.33855347 226.14648438 34.5168457 C227.06397461 35.77694458 227.06397461 35.77694458 228 37.0625 C228.94069336 38.35063599 228.94069336 38.35063599 229.90039062 39.66479492 C251.5 69.66210738 251.5 69.66210738 251.5 81.625 C254.47 81.625 257.44 81.625 260.5 81.625 C260.88218767 83.28114657 261.21395102 84.94957024 261.5 86.625 C261.17 86.955 260.84 87.285 260.5 87.625 C259.88769531 87.59019531 259.27539062 87.55539062 258.64453125 87.51953125 C255.86667821 87.42181783 254.08450014 87.55275284 251.5 88.625 C248.8668705 92.3765309 247.22141855 96.39522871 245.5 100.625 C243.9632739 102.1617261 242.53898727 101.77909187 240.39595032 101.81254578 C239.51134628 101.82837204 238.62674225 101.8441983 237.71533203 101.86050415 C236.73717529 101.87261932 235.75901855 101.8847345 234.7512207 101.8972168 C233.72683395 101.91342575 232.7024472 101.9296347 231.64701843 101.94633484 C222.18749656 102.08662118 212.72702631 102.16464265 203.26669025 102.22525311 C196.90562947 102.26626306 190.54610362 102.32670408 184.18579102 102.43432617 C178.04421716 102.53790958 171.90401387 102.59262957 165.76161766 102.61271095 C163.41908922 102.6286728 161.07661267 102.66196569 158.7345829 102.71286583 C155.45333677 102.78076305 152.17755932 102.78586401 148.89575195 102.77612305 C147.92771637 102.81050476 146.95968079 102.84488647 145.96231079 102.88031006 C143.13965742 102.83259553 141.11400607 102.70452751 138.5 101.625 C136.49240526 99.16004239 135.14920026 96.76659313 133.81213856 93.88599491 C132.58825061 91.19022657 132.58825061 91.19022657 128.76123047 90.45800781 C126.72097202 90.41592889 126.72097202 90.41592889 124.6171875 90.578125 C123.88049835 90.58753113 123.1438092 90.59693726 122.38479614 90.60662842 C120.04428939 90.64912274 117.71305082 90.76207866 115.375 90.875 C113.79826313 90.90804441 112.22142859 90.93673289 110.64453125 90.9609375 C103.44502875 90.71570264 103.44502875 90.71570264 96.80032349 92.63095093 C93.3540595 94.12020039 89.90686569 93.91979838 86.21484375 93.91552734 C84.96539474 93.92560318 84.96539474 93.92560318 83.69070435 93.93588257 C80.93957544 93.95486787 78.18869031 93.95878667 75.4375 93.9609375 C73.52465718 93.96736381 71.61181535 93.97409204 69.69897461 93.98110962 C65.69089477 93.99308281 61.68290115 93.99679027 57.67480469 93.99560547 C52.53640899 93.99540199 47.39856458 94.02273358 42.26029968 94.05714989 C38.31064305 94.07937203 34.36112023 94.08344449 30.41140747 94.08238602 C28.51675512 94.08474791 26.6220994 94.09360444 24.72750854 94.10905075 C22.07966274 94.12862121 19.43302095 94.12290892 16.78515625 94.11083984 C16.00165802 94.12207886 15.21815979 94.13331787 14.41091919 94.14489746 C10.85459571 94.10365253 8.8959326 93.93224933 6.04467773 91.71963501 C3.80629864 88.6843176 3.39561564 87.11406081 3.46484375 83.40625 C3.50595427 70.37168701 3.50595427 70.37168701 -3.4921875 59.73046875 C-9.65466465 53.26826022 -9.93861089 45.19014959 -10.4375 36.6875 C-10.49542725 35.75059326 -10.55335449 34.81368652 -10.61303711 33.84838867 C-10.6466333 32.96127197 -10.68022949 32.07415527 -10.71484375 31.16015625 C-10.74698975 30.359729 -10.77913574 29.55930176 -10.81225586 28.73461914 C-10.4249294 26.11781856 -9.51099893 25.27072305 -7.5 23.625 C-8.58784968 20.37516865 -8.58784968 20.37516865 -10.5 17.625 C-10.54063832 15.95882885 -10.542721 14.29111905 -10.5 12.625 C-9.51 12.295 -8.52 11.965 -7.5 11.625 C-7.5825 10.738125 -7.665 9.85125 -7.75 8.9375 C-7.33656911 3.45954075 -5.45455231 0.9740272 0 0 Z " fill="#265CA3" transform="translate(69.5,195.375)"/>
<path d="M0 0 C11.694375 -0.103125 23.38875 -0.20625 35.4375 -0.3125 C39.11447021 -0.35802002 42.79144043 -0.40354004 46.57983398 -0.45043945 C51.10949707 -0.47302246 51.10949707 -0.47302246 53.23768616 -0.47721863 C54.7073679 -0.48483955 56.17702061 -0.50230597 57.64649963 -0.52787781 C73.94129652 -0.79698328 73.94129652 -0.79698328 81 5 C83.15625 7.38671875 83.15625 7.38671875 84.5 9.6875 C85.19609375 10.83798828 85.19609375 10.83798828 85.90625 12.01171875 C88.2137103 16.20635194 88.16858846 19.70200343 88.19287109 24.421875 C88.20513733 25.72958107 88.20513733 25.72958107 88.21765137 27.06370544 C88.2425318 29.95912997 88.25903328 32.85450517 88.2734375 35.75 C88.27876118 36.73964752 88.28408485 37.72929504 88.28956985 38.74893188 C88.31632026 43.99293239 88.33568411 49.236909 88.35009766 54.48095703 C88.36669792 59.8834307 88.41143149 65.2852887 88.4624691 70.68753052 C88.49623336 74.85187428 88.50768548 79.01607404 88.51332474 83.18054199 C88.52001802 85.17074252 88.53518967 87.16093422 88.55921555 89.15100098 C88.80826425 111.03888669 88.80826425 111.03888669 80.625 119.4375 C74.80637232 122.90096886 70.49361294 124.37697119 63.68774414 124.34057617 C62.98313521 124.34093778 62.27852629 124.34129938 61.55256557 124.34167194 C59.29646222 124.33945227 57.04112465 124.31669846 54.78515625 124.29296875 C53.38244992 124.28855182 51.97973864 124.28549503 50.57702637 124.28381348 C45.40544163 124.26815526 40.2339631 124.22627139 35.0625 124.1875 C23.491875 124.125625 11.92125 124.06375 0 124 C0 83.08 0 42.16 0 0 Z " fill="#163172" transform="translate(1290,142)"/>
<path d="M0 0 C11.694375 -0.103125 23.38875 -0.20625 35.4375 -0.3125 C39.11447021 -0.35802002 42.79144043 -0.40354004 46.57983398 -0.45043945 C51.10949707 -0.47302246 51.10949707 -0.47302246 53.23768616 -0.47721863 C54.7073679 -0.48483955 56.17702061 -0.50230597 57.64649963 -0.52787781 C66.32832372 -0.67125648 73.9262809 -0.79408602 81 5 C83.15625 7.3515625 83.15625 7.3515625 84.5 9.625 C85.19609375 10.75808594 85.19609375 10.75808594 85.90625 11.9140625 C88.24917144 16.38234839 88.16716306 20.52479944 88.19287109 25.44360352 C88.20513733 26.73689827 88.20513733 26.73689827 88.21765137 28.05632019 C88.24249 30.91384187 88.25902122 33.77131376 88.2734375 36.62890625 C88.27876118 37.60660414 88.28408485 38.58430202 88.28956985 39.59162712 C88.31630011 44.77079357 88.33567181 49.94993597 88.35009766 55.12915039 C88.36341454 59.40573624 88.3912259 63.68184242 88.43212891 67.95825195 C88.48158774 73.12945792 88.50623555 78.30023014 88.51332474 83.47166252 C88.52001636 85.43674388 88.53518363 87.40181636 88.55921555 89.36676216 C88.80905111 111.03807913 88.80905111 111.03807913 80.625 119.4375 C74.80637232 122.90096886 70.49361294 124.37697119 63.68774414 124.34057617 C62.98313521 124.34093778 62.27852629 124.34129938 61.55256557 124.34167194 C59.29646222 124.33945227 57.04112465 124.31669846 54.78515625 124.29296875 C53.38244992 124.28855182 51.97973864 124.28549503 50.57702637 124.28381348 C45.40544163 124.26815526 40.2339631 124.22627139 35.0625 124.1875 C23.491875 124.125625 11.92125 124.06375 0 124 C0 83.08 0 42.16 0 0 Z " fill="#173172" transform="translate(1404,142)"/>
<path d="M0 0 C17.5725 -0.12375 17.5725 -0.12375 35.5 -0.25 C39.18607422 -0.28641602 42.87214844 -0.32283203 46.66992188 -0.36035156 C51.20410156 -0.37841797 51.20410156 -0.37841797 53.33312988 -0.3817749 C54.80616095 -0.3878792 56.27917321 -0.40186824 57.7520752 -0.42230225 C67.08866583 -0.54524977 74.51046562 -0.64172984 82.0234375 5.7109375 C82.46945312 6.26007813 82.91546875 6.80921875 83.375 7.375 C84.06722656 8.19097656 84.06722656 8.19097656 84.7734375 9.0234375 C88.9891091 15.8168446 88.37227364 23.47613791 88.37060547 31.16723633 C88.37498163 33.42801107 88.41136053 35.68683506 88.44921875 37.94726562 C88.45508779 39.40103507 88.4590566 40.85481368 88.4609375 42.30859375 C88.46915527 43.61626709 88.47737305 44.92394043 88.48583984 46.27124023 C87.81647338 51.40854374 85.95223401 55.19458033 82.078125 58.77734375 C80.38541667 59.8515625 78.69270833 60.92578125 77 62 C77.9075 62.556875 78.815 63.11375 79.75 63.6875 C83.42403253 66.30171545 85.97923839 68.95847678 88 73 C88.12303114 75.47162104 88.18835339 77.9139624 88.203125 80.38671875 C88.20882507 81.12195267 88.21452515 81.85718658 88.22039795 82.61470032 C88.22985248 84.1740271 88.23638373 85.73337391 88.24023438 87.29272461 C88.24989197 89.66100835 88.2808894 92.02840618 88.3125 94.39648438 C88.31903517 95.91405737 88.32428362 97.43163655 88.328125 98.94921875 C88.3404718 99.65052414 88.3528186 100.35182953 88.36553955 101.0743866 C88.33807641 107.23963141 86.55765417 111.383141 83.4375 116.625 C76.33194981 123.5483566 68.5076928 124.62557606 58.98266602 124.5657959 C57.48582834 124.54063292 55.98900175 124.51480094 54.4921875 124.48828125 C53.09253945 124.48091254 51.69287753 124.47582232 50.29321289 124.47302246 C45.1535959 124.44700798 40.01427556 124.37720187 34.875 124.3125 C23.36625 124.209375 11.8575 124.10625 0 124 C0 83.08 0 42.16 0 0 Z " fill="#163172" transform="translate(1064,142)"/>
<path d="M0 0 C17.5725 -0.12375 17.5725 -0.12375 35.5 -0.25 C39.18607422 -0.28641602 42.87214844 -0.32283203 46.66992188 -0.36035156 C51.20410156 -0.37841797 51.20410156 -0.37841797 53.33312988 -0.3817749 C54.80616095 -0.3878792 56.27917321 -0.40186824 57.7520752 -0.42230225 C67.08866583 -0.54524977 74.51046562 -0.64172984 82.0234375 5.7109375 C82.46945312 6.26007813 82.91546875 6.80921875 83.375 7.375 C84.06722656 8.19097656 84.06722656 8.19097656 84.7734375 9.0234375 C87.45911983 13.3513205 88.25120605 17.72793055 88.30639648 22.75488281 C88.32238388 23.86333557 88.33837128 24.97178833 88.35484314 26.11383057 C88.36020584 27.29829773 88.36556854 28.48276489 88.37109375 29.703125 C88.38012222 30.93609314 88.3891507 32.16906128 88.39845276 33.43939209 C88.41293991 36.04501931 88.42183817 38.65068279 88.42553711 41.25634766 C88.43741706 45.22231075 88.486609 49.18670944 88.53710938 53.15234375 C88.54657621 55.69009661 88.55381 58.22785899 88.55859375 60.765625 C88.57812607 61.94199524 88.59765839 63.11836548 88.61778259 64.3303833 C88.57696857 71.85869395 87.43879383 77.77829947 83 84 C80.75508855 86.05623627 78.64436856 87.44448908 76 89 C76.59285407 93.48496003 77.75726936 97.25465573 79.50390625 101.421875 C79.99697266 102.61167969 80.49003906 103.80148438 80.99804688 105.02734375 C81.51906525 106.2684249 82.04055495 107.50930828 82.5625 108.75 C83.58900835 111.20135379 84.60996977 113.6548465 85.62890625 116.109375 C86.08338135 117.19186523 86.53785645 118.27435547 87.00610352 119.38964844 C88 122 88 122 88 124 C78.1 124 68.2 124 58 124 C51.02959966 108.89746593 51.02959966 108.89746593 48.125 101.3125 C47.81820312 100.52939453 47.51140625 99.74628906 47.1953125 98.93945312 C45 93.26006208 45 93.26006208 45 91 C39.72 91 34.44 91 29 91 C29 101.89 29 112.78 29 124 C19.43 124 9.86 124 0 124 C0 83.08 0 42.16 0 0 Z " fill="#173272" transform="translate(530,142)"/>
<path d="M0 0 C9.24 0 18.48 0 28 0 C28 31.68 28 63.36 28 96 C38.56 96 49.12 96 60 96 C60 64.32 60 32.64 60 0 C69.24 0 78.48 0 88 0 C88.13575257 13.90872054 88.24574696 27.81699842 88.31087303 41.72623253 C88.34213613 48.18541527 88.38451902 54.64411979 88.45263672 61.10302734 C88.51800559 67.34058941 88.55374379 73.57769256 88.56926346 79.81557083 C88.58031814 82.19096726 88.60190557 84.56633961 88.63438034 86.94153976 C88.67817449 90.27846573 88.68392421 93.61351479 88.68115234 96.95068359 C88.702724 97.9246106 88.72429565 98.8985376 88.746521 99.90197754 C88.68126217 107.2006872 86.47596595 112.23967408 82 118 C77.00555743 122.07709597 72.14992142 124.2418387 65.6940918 124.2746582 C64.1417408 124.28895622 64.1417408 124.28895622 62.55802917 124.30354309 C60.89541801 124.30217598 60.89541801 124.30217598 59.19921875 124.30078125 C58.0488765 124.30506638 56.89853424 124.3093515 55.71333313 124.31376648 C53.28163307 124.31950422 50.84991585 124.32001415 48.41821289 124.31567383 C44.71145054 124.31252038 41.00549148 124.33595858 37.29882812 124.36132812 C34.93229267 124.36360192 32.56575508 124.36430424 30.19921875 124.36328125 C29.096884 124.372491 27.99454926 124.38170074 26.85881042 124.39118958 C19.32094688 124.34623199 13.90171677 123.26843998 7.3125 119.4375 C0.85622262 112.63223466 -0.73730353 105.14698312 -0.56762695 96.04248047 C-0.56835709 94.99738815 -0.56908722 93.95229584 -0.56983948 92.87553406 C-0.56638387 89.45553864 -0.52761742 86.03694203 -0.48828125 82.6171875 C-0.47894595 80.23252099 -0.47183323 77.84784484 -0.46684265 75.46316528 C-0.44782958 69.2125766 -0.39877713 62.96257667 -0.34332275 56.71221924 C-0.29200771 50.32385215 -0.26930244 43.93538915 -0.24414062 37.546875 C-0.19065328 25.03095083 -0.10276326 12.51561668 0 0 Z " fill="#163172" transform="translate(1176,142)"/>
<path d="M0 0 C25.74 0 51.48 0 78 0 C78 9.24 78 18.48 78 28 C61.5 28 45 28 28 28 C28 34.6 28 41.2 28 48 C39.88 48 51.76 48 64 48 C64 57.24 64 66.48 64 76 C52.12 76 40.24 76 28 76 C28 82.6 28 89.2 28 96 C44.5 96 61 96 78 96 C78 105.24 78 114.48 78 124 C52.26 124 26.52 124 0 124 C0 83.08 0 42.16 0 0 Z " fill="#163172" transform="translate(860,142)"/>
<path d="M0 0 C9.57 0 19.14 0 29 0 C33.76188846 16.62483868 38.490347 33.25709591 43.13671875 49.91455078 C44.01324109 53.04732493 44.89636605 56.17817189 45.78125 59.30859375 C48.90899268 70.39086363 51.93030224 81.48896261 54.7878418 92.64404297 C56.71503094 100.0915078 58.87382912 107.45498895 61.17211914 114.79614258 C61.4118042 115.56982178 61.65148926 116.34350098 61.8984375 117.140625 C62.11161621 117.81641602 62.32479492 118.49220703 62.54443359 119.18847656 C63 121 63 121 63 124 C53.76 124 44.52 124 35 124 C30 110.66666667 30 110.66666667 30 106 C14.655 106.495 14.655 106.495 -1 107 C-2.27523882 112.21963939 -2.27523882 112.21963939 -3.54272461 117.44116211 C-4.88888889 122.88888889 -4.88888889 122.88888889 -6 124 C-8.07262076 124.08767112 -10.14820294 124.10695873 -12.22265625 124.09765625 C-14.11274414 124.09282227 -14.11274414 124.09282227 -16.04101562 124.08789062 C-17.38151109 124.07953403 -18.72200588 124.07106907 -20.0625 124.0625 C-21.40689942 124.0574866 -22.7513006 124.05292342 -24.09570312 124.04882812 C-27.39717941 124.03699488 -30.69856803 124.02050971 -34 124 C-32.87238273 116.44406999 -31.38718621 109.18886809 -29.1875 101.875 C-28.64784265 100.03402844 -28.10878958 98.19287963 -27.5703125 96.3515625 C-27.30379883 95.44696289 -27.03728516 94.54236328 -26.76269531 93.61035156 C-25.65919518 89.83358349 -24.60753157 86.0432866 -23.5625 82.25 C-23.15516687 80.77728317 -22.74760795 79.30462878 -22.33984375 77.83203125 C-22.02055908 76.67888428 -22.02055908 76.67888428 -21.69482422 75.50244141 C-20.34617971 70.64523614 -18.98499766 65.79153621 -17.625 60.9375 C-17.33004639 59.88457764 -17.03509277 58.83165527 -16.73120117 57.74682617 C-15.51570357 53.40829825 -14.29983344 49.06987475 -13.08398438 44.73144531 C-12.47849633 42.57074761 -11.8731081 40.41002194 -11.26782227 38.24926758 C-10.67750545 36.14223849 -10.08685359 34.03530324 -9.49584961 31.9284668 C-8.15855931 27.15731599 -6.82793188 22.38463016 -5.51953125 17.60546875 C-5.29281738 16.77974365 -5.06610352 15.95401855 -4.83251953 15.10327148 C-4.41821981 13.59175179 -4.00623632 12.07959425 -3.59716797 10.56665039 C-2.59228485 6.90436051 -1.41800315 3.54500789 0 0 Z " fill="#173273" transform="translate(671,142)"/>
<path d="M0 0 C9.57 0 19.14 0 29 0 C32.49814337 11.76648224 35.86344098 23.56401741 39.15234375 35.390625 C40.41551237 39.9279972 41.70190944 44.45799541 43.00390625 48.984375 C43.32762207 50.11746094 43.65133789 51.25054687 43.98486328 52.41796875 C44.60697683 54.59393127 45.23403919 56.76848668 45.86669922 58.94140625 C46.14658691 59.92496094 46.42647461 60.90851563 46.71484375 61.921875 C46.96355225 62.78393555 47.21226074 63.64599609 47.46850586 64.53417969 C48.02050902 67.09514981 48.09610869 69.3884144 48 72 C48.66 72 49.32 72 50 72 C50.10699219 71.07316406 50.21398437 70.14632812 50.32421875 69.19140625 C51.06764838 64.00562652 52.46583119 58.99335587 53.8125 53.9375 C54.06064453 52.98939453 54.30878906 52.04128906 54.56445312 51.06445312 C56.59934071 43.34430708 58.79144733 35.67195017 61 28 C61.71408083 25.50275827 62.42761902 23.00536132 63.140625 20.5078125 C65.09375 13.671875 67.046875 6.8359375 69 0 C78.57 0 88.14 0 98 0 C95.98897261 8.83415603 93.93638176 17.50741821 91.1875 26.140625 C88.54316643 34.58215139 86.29589764 43.15093911 83.92773438 51.67285156 C83.02615401 54.90620347 82.11630333 58.13709392 81.203125 61.3671875 C78.03240122 72.59661583 74.97647912 83.84500019 72.06713867 95.14501953 C70.47110475 101.30494143 68.74157902 107.38948656 66.80859375 113.453125 C66.09260731 115.70830935 65.43766812 117.96836451 64.8125 120.25 C64 123 64 123 63 124 C60.85441173 124.08775605 58.70595579 124.10695219 56.55859375 124.09765625 C55.25341797 124.09443359 53.94824219 124.09121094 52.60351562 124.08789062 C51.2148431 124.07953401 49.82617123 124.07106905 48.4375 124.0625 C47.04492344 124.05748666 45.65234519 124.05292347 44.25976562 124.04882812 C40.8398013 124.03699434 37.41992156 124.0205088 34 124 C33.84966309 123.40799805 33.69932617 122.81599609 33.54443359 122.20605469 C30.84076279 111.59981775 28.08389568 101.02853186 24.875 90.5625 C22.85025098 83.95864313 21.02228572 77.34618789 19.39135742 70.63476562 C18.12113985 65.4202572 16.68333221 60.27079691 15.1875 55.1171875 C13.65106754 49.81756994 12.17255773 44.50169315 10.6875 39.1875 C10.08596515 37.03514852 9.48440215 34.88280491 8.8828125 32.73046875 C8.57633789 31.63395996 8.26986328 30.53745117 7.95410156 29.40771484 C6.96977851 25.89205948 5.98145933 22.37754708 4.9921875 18.86328125 C4.66903564 17.71384033 4.34588379 16.56439941 4.01293945 15.38012695 C3.38747205 13.15572515 2.76103344 10.93159617 2.13354492 8.70776367 C1.71359253 7.21273315 1.71359253 7.21273315 1.28515625 5.6875 C1.03644775 4.80449219 0.78773926 3.92148438 0.53149414 3.01171875 C0 1 0 1 0 0 Z " fill="#173273" transform="translate(736,142)"/>
<path d="M0 0 C2.0679668 1.26732541 4.02760456 2.58392122 6 4 C6.86238281 3.52240234 6.86238281 3.52240234 7.7421875 3.03515625 C11.56045044 1.28456857 14.89690023 1.17173452 19 2 C23.9894918 4.43706391 28.71817096 7.45939993 31.125 12.625 C31.89974194 15.61329034 32.27819145 17.93989406 32 21 C37.71458098 19.67804775 39.72355241 15.57900159 42.6875 10.9375 C43.64588027 9.46492898 44.60794489 7.99474723 45.57421875 6.52734375 C45.99276123 5.87499756 46.41130371 5.22265137 46.8425293 4.55053711 C48 3 48 3 50 2 C50.70382813 3.00675781 51.40765625 4.01351562 52.1328125 5.05078125 C58.21533511 13.72383384 64.40060391 22.31015132 70.7043457 30.82373047 C75.33019708 37.07522545 79.8917831 43.37065107 84.42822266 49.68725586 C88.35179705 55.1386962 92.37860034 60.50016561 96.48828125 65.8125 C98 68 98 68 98 70 C101.8246079 66.27327968 105.3523717 62.37791323 108.8125 58.3125 C109.33513428 57.70325684 109.85776855 57.09401367 110.39624023 56.46630859 C114.21434457 51.99258204 117.85657845 47.40689936 121.37890625 42.6953125 C121.91386719 42.13585937 122.44882812 41.57640625 123 41 C123.99 41 124.98 41 126 41 C125.67 38.03 125.34 35.06 125 32 C126.65 32.33 128.3 32.66 130 33 C133.62870159 42.41002278 133.62870159 42.41002278 132 47 C131.34 47 130.68 47 130 47 C134.89324673 53.87042769 139.79848055 60.73160712 144.74682617 67.5625 C146.38714492 69.82928326 148.02194398 72.09997278 149.65625 74.37109375 C151.92706348 77.52492698 154.22212754 80.65928389 156.53125 83.78515625 C157.64617322 85.3148565 158.76076872 86.84479567 159.875 88.375 C160.40528809 89.08245361 160.93557617 89.78990723 161.48193359 90.51879883 C161.95969238 91.18032959 162.43745117 91.84186035 162.9296875 92.5234375 C163.56753174 93.388479 163.56753174 93.388479 164.21826172 94.27099609 C165.23975823 96.5302835 164.80783441 97.71186701 164 100 C161.525 100.495 161.525 100.495 159 101 C135.85888433 69.71576713 135.85888433 69.71576713 125 54 C121.37323035 55.47638411 119.61308453 57.41431938 117.25 60.5 C116.56421875 61.38429688 115.8784375 62.26859375 115.171875 63.1796875 C114.45515625 64.11039062 113.7384375 65.04109375 113 66 C111.50372688 67.87797544 110.00389893 69.7531258 108.5 71.625 C107.8296875 72.46289062 107.159375 73.30078125 106.46875 74.1640625 C105.9840625 74.76992187 105.499375 75.37578125 105 76 C106.86583395 81.57699819 110.44657088 85.54276273 114.1015625 90.0625 C116.08066398 93.1248134 116.54566058 94.44686137 116 98 C115 99 115 99 112.63085938 99.28271484 C110 99 110 99 108.35351562 97.54150391 C107.63711914 96.51935791 107.63711914 96.51935791 106.90625 95.4765625 C106.08338501 94.32982056 106.08338501 94.32982056 105.24389648 93.15991211 C104.66841064 92.32339111 104.0929248 91.48687012 103.5 90.625 C102.88906494 89.76592041 102.27812988 88.90684082 101.64868164 88.02172852 C100.37666668 86.23179483 99.11119623 84.43719371 97.85205078 82.63818359 C95.61234182 79.44779406 93.32724412 76.29223778 91.03613281 73.13867188 C87.78053631 68.65601182 84.55031213 64.15498327 81.31494141 59.65771484 C75.35014836 51.3686208 69.37230763 43.10054129 63.19921875 34.96484375 C61.5391944 32.72690684 59.92363025 30.47723149 58.33203125 28.19140625 C57.65563599 27.22412598 57.65563599 27.22412598 56.96557617 26.23730469 C56.09052077 24.9808966 55.22187445 23.7199934 54.3605957 22.45410156 C51.89143111 18.84899605 51.89143111 18.84899605 48 17 C47.36835938 17.92296875 46.73671875 18.8459375 46.0859375 19.796875 C39.05485354 30.05549512 31.94046671 40.25401179 24.79833984 50.43554688 C22.44407523 53.79275506 20.09266989 57.15195921 17.74169922 60.51147461 C16.5835635 62.16620932 15.42503682 63.82067048 14.26611328 65.47485352 C11.25472369 69.77375803 8.24960297 74.07686106 5.25390625 78.38671875 C4.63580078 79.27423828 4.01769531 80.16175781 3.38085938 81.07617188 C2.21219936 82.7544731 1.04537644 84.43405585 -0.11914062 86.11523438 C-3.90797057 91.55059065 -7.88543986 96.8071733 -12 102 C-13.65 101.67 -15.3 101.34 -17 101 C-17.67382812 99.27319336 -17.67382812 99.27319336 -18 97 C-16.90429688 94.88110352 -16.90429688 94.88110352 -15.21875 92.62890625 C-14.62449219 91.80712891 -14.03023437 90.98535156 -13.41796875 90.13867188 C-12.14119325 88.42373615 -10.86255138 86.71018835 -9.58203125 84.99804688 C-8.69064453 83.76344727 -8.69064453 83.76344727 -7.78125 82.50390625 C-6.9469043 81.38737671 -6.9469043 81.38737671 -6.09570312 80.24829102 C-4.6820925 77.34768044 -4.98166673 76.0205987 -6 73 C-7.63161784 70.67110958 -9.26201279 68.4993366 -11.0625 66.3125 C-16 60.24334925 -16 60.24334925 -16 58 C-19.98852657 61.79308152 -23.29605531 65.82688226 -26.5625 70.25 C-27.07627197 70.9394873 -27.59004395 71.62897461 -28.11938477 72.33935547 C-32.48622104 78.23123452 -36.72561661 84.21150056 -40.90258789 90.23925781 C-43.75745653 94.3378954 -46.74634168 98.20898613 -50 102 C-51.65 101.67 -53.3 101.34 -55 101 C-55.64306641 99.23095703 -55.64306641 99.23095703 -56 97 C-55.12646484 95.17919922 -55.12646484 95.17919922 -53.7109375 93.3046875 C-53.18798096 92.59795898 -52.66502441 91.89123047 -52.1262207 91.16308594 C-51.54831787 90.40801758 -50.97041504 89.65294922 -50.375 88.875 C-49.16763817 87.25285016 -47.96061645 85.63044714 -46.75390625 84.0078125 C-45.81828857 82.76306152 -45.81828857 82.76306152 -44.86376953 81.49316406 C-41.96404327 77.61420093 -39.1401057 73.68166183 -36.3125 69.75 C-35.77689453 69.00991699 -35.24128906 68.26983398 -34.68945312 67.50732422 C-32.12501421 63.96360781 -29.57752999 60.40985653 -27.06640625 56.828125 C-26.61031982 56.18004883 -26.1542334 55.53197266 -25.68432617 54.86425781 C-24.83746635 53.65847344 -23.99487793 52.44967288 -23.1574707 51.23730469 C-21.24342394 48.51602054 -19.81200134 46.87466756 -17 45 C-14.74649757 47.87226988 -12.49784134 50.74829829 -10.25 53.625 C-9.61578125 54.43324219 -8.9815625 55.24148437 -8.328125 56.07421875 C-5.04130103 60.28546196 -1.88256924 64.50144497 1 69 C6.3016954 62.35291252 11.23211654 55.49509384 16.0625 48.5 C16.74376953 47.51902344 17.42503906 46.53804687 18.12695312 45.52734375 C22.14927936 39.7237568 26.08177944 33.87733084 30 28 C-3.66 28 -37.32 28 -72 28 C-72.33 26.35 -72.66 24.7 -73 23 C-69.97906785 19.97906785 -66.43627928 20.53323166 -62.375 20.375 C-61.17230469 20.31699219 -61.17230469 20.31699219 -59.9453125 20.2578125 C-57.96392444 20.16346069 -55.98199355 20.08063785 -54 20 C-53.84144531 19.39671875 -53.68289062 18.7934375 -53.51953125 18.171875 C-51.72094932 12.01098663 -49.84860737 9.13190491 -44.1171875 5.95703125 C-41.90285329 4.95608682 -39.952215 4.5308788 -37.5625 4.125 C-33.40911317 3.2645104 -31.2250938 1.80073935 -28 -1 C-18.89003938 -6.20569179 -8.88551966 -5.18760122 0 0 Z " fill="#245AA2" transform="translate(139,116)"/>
<path d="M0 0 C9.57 0 19.14 0 29 0 C30.10859375 2.43375 31.2171875 4.8675 32.359375 7.375 C33.44463903 9.75487899 34.53040149 12.13452998 35.61621094 14.51416016 C36.3654294 16.15682648 37.11413671 17.79972605 37.86230469 19.44287109 C38.94328771 21.81670981 40.02616044 24.18967889 41.109375 26.5625 C41.43871033 27.28679199 41.76804565 28.01108398 42.10736084 28.75732422 C44.30255872 33.55970816 46.61628758 38.28822603 49 43 C49.49927002 41.91058105 49.99854004 40.82116211 50.51293945 39.69873047 C52.37372288 35.63917424 54.23585638 31.58023848 56.09838867 27.52148438 C56.9027911 25.76807149 57.70683217 24.01449279 58.51049805 22.26074219 C59.66879786 19.73328179 60.82841565 17.20642966 61.98828125 14.6796875 C62.34465164 13.90132538 62.70102203 13.12296326 63.06819153 12.3210144 C63.40831772 11.58069977 63.74844391 10.84038513 64.09887695 10.07763672 C64.39421829 9.43365936 64.68955963 8.78968201 64.99385071 8.12619019 C66.28563438 5.39639871 67.64941001 2.70117997 69 0 C78.24 0 87.48 0 97 0 C95.08386983 5.74839051 93.20470209 11.08244013 90.6640625 16.515625 C90.34803574 17.20195511 90.03200897 17.88828522 89.70640564 18.59541321 C89.03172609 20.05950702 88.35497973 21.52264995 87.67630005 22.9848938 C85.88045807 26.85417241 84.09956163 30.73033165 82.31640625 34.60546875 C81.95540329 35.38885117 81.59440033 36.17223358 81.22245789 36.97935486 C77.61470147 44.81609989 74.08000878 52.68491697 70.5625 60.5625 C70.28392151 61.18636597 70.00534302 61.81023193 69.71832275 62.45300293 C69.44792175 63.05858032 69.17752075 63.66415771 68.89892578 64.28808594 C68.39731934 65.41118164 67.89571289 66.53427734 67.37890625 67.69140625 C66.9413501 68.67310791 66.50379395 69.65480957 66.05297852 70.66625977 C65.39557088 72.12328726 64.71485858 73.57028285 64 75 C63.88159887 76.57206643 63.82296967 78.14883269 63.79467773 79.72509766 C63.77473251 80.70596344 63.75478729 81.68682922 63.73423767 82.69741821 C63.71752518 83.75891083 63.70081268 84.82040344 63.68359375 85.9140625 C63.66281265 86.99883881 63.64203156 88.08361511 63.62062073 89.20126343 C63.55509366 92.67577621 63.49622553 96.15036624 63.4375 99.625 C63.39431779 101.97657058 63.3507036 104.32813326 63.30664062 106.6796875 C63.198594 112.45304689 63.09954375 118.22646261 63 124 C53.43 124 43.86 124 34 124 C34.07863281 120.79925781 34.15726563 117.59851563 34.23828125 114.30078125 C34.60107068 90.26279492 34.12764988 71.22383648 22.10351562 49.92480469 C18.08995323 42.63023854 14.89272191 34.90193988 11.52633667 27.29470825 C10.33565442 24.61461796 9.12989897 21.94189209 7.91821289 19.27124023 C7.54013489 18.43579681 7.16205688 17.60035339 6.77252197 16.73959351 C6.06290991 15.17174537 5.35178762 13.60457952 4.63885498 12.03823853 C4.32015442 11.33025116 4.00145386 10.62226379 3.6730957 9.89282227 C3.25892143 8.97811913 3.25892143 8.97811913 2.83638 8.04493713 C1.75996657 5.4131217 0.89917286 2.69751858 0 0 Z " fill="#183373" transform="translate(1518,142)"/>
<path d="M0 0 C29.04 0 58.08 0 88 0 C88 9.24 88 18.48 88 28 C78.1 28 68.2 28 58 28 C58 59.68 58 91.36 58 124 C48.76 124 39.52 124 30 124 C30 92.32 30 60.64 30 28 C20.1 28 10.2 28 0 28 C0 18.76 0 9.52 0 0 Z " fill="#163172" transform="translate(416,142)"/>
<path d="M0 0 C9.24 0 18.48 0 28 0 C28 31.68 28 63.36 28 96 C43.18 96 58.36 96 74 96 C74 105.24 74 114.48 74 124 C49.58 124 25.16 124 0 124 C0 83.08 0 42.16 0 0 Z " fill="#163172" transform="translate(964,142)"/>
<path d="M0 0 C0.54785156 0.3609375 1.09570312 0.721875 1.66015625 1.09375 C1.66015625 1.75375 1.66015625 2.41375 1.66015625 3.09375 C2.26472656 3.34253906 2.86929688 3.59132813 3.4921875 3.84765625 C6.00459473 5.29172455 6.88594867 6.55510813 8.34765625 9.03125 C8.97220703 10.06572266 8.97220703 10.06572266 9.609375 11.12109375 C13.0388346 17.55929857 12.8763644 27.80866429 10.90625 34.75 C9.95838971 36.68289156 8.93316128 38.3610487 7.66015625 40.09375 C7.08265625 40.980625 6.50515625 41.8675 5.91015625 42.78125 C1.09013654 47.73515915 -5.38672273 51.64818197 -12.3203125 52.4296875 C-20.85638437 52.53365914 -27.949762 51.89798028 -34.59375 46.140625 C-41.00234146 39.38976991 -44.47443782 33.0153208 -44.90234375 23.65625 C-44.61190764 15.35945851 -41.62765907 9.31163772 -36.08984375 3.21875 C-25.89076932 -5.9996442 -11.83176791 -6.92591292 0 0 Z " fill="#275DA4" transform="translate(271.33984375,89.90625)"/>
<path d="M0 0 C18.15 0 36.3 0 55 0 C55 13.2 55 26.4 55 40 C36.85 40 18.7 40 0 40 C0 26.8 0 13.6 0 0 Z " fill="#F6F8FB" transform="translate(94,243)"/>
<path d="M0 0 C9.24 0 18.48 0 28 0 C32.50114174 4.50114174 32.50114174 4.50114174 32.51757812 9.79077148 C32.53018677 10.95555527 32.54279541 12.12033905 32.55578613 13.32041931 C32.54768921 14.57464188 32.53959229 15.82886444 32.53125 17.12109375 C32.5350769 18.41314224 32.53890381 19.70519073 32.54284668 21.03639221 C32.54873755 23.76932942 32.54019462 26.50174293 32.52148438 29.23461914 C32.49871629 32.72972374 32.51180478 36.2235982 32.53577423 39.71865749 C32.55374679 43.0612335 32.54114312 46.40348284 32.53125 49.74609375 C32.53934692 50.99829208 32.54744385 52.25049042 32.55578613 53.54063416 C32.54317749 54.7085701 32.53056885 55.87650604 32.51757812 57.07983398 C32.51280457 58.61727516 32.51280457 58.61727516 32.50793457 60.18577576 C32 63 32 63 28 68 C18.76 68 9.52 68 0 68 C0 45.56 0 23.12 0 0 Z " fill="#F7F8FA" transform="translate(1318,170)"/>
<path d="M0 0 C9.24 0 18.48 0 28 0 C31.53750741 3.53750741 31.37765157 4.19350325 31.38818359 8.984375 C31.39764008 10.21575195 31.40709656 11.44712891 31.4168396 12.71582031 C31.41146989 14.06055014 31.40531694 15.40527704 31.3984375 16.75 C31.40045847 18.1285823 31.4033701 19.50716355 31.40713501 20.88574219 C31.41155735 23.77419214 31.40513058 26.66236367 31.39111328 29.55078125 C31.37402099 33.25329754 31.38386272 36.95516146 31.40183067 40.65765381 C31.41267121 43.50411902 31.40922103 46.35042955 31.4014473 49.19689941 C31.39944601 50.56205319 31.40190208 51.92722102 31.40888596 53.2923584 C31.4165039 55.2001112 31.40283406 57.10791324 31.38818359 59.015625 C31.38579681 60.10133789 31.38341003 61.18705078 31.38095093 62.30566406 C31 65 31 65 28 68 C18.76 68 9.52 68 0 68 C0 45.56 0 23.12 0 0 Z " fill="#FBFBFC" transform="translate(1432,170)"/>
<path d="M0 0 C0 19.47 0 38.94 0 59 C-11.55 59 -23.1 59 -35 59 C-31.94391807 40.66350843 -23.65379538 25.32208121 -12 11 C-11.51660156 10.37609375 -11.03320312 9.7521875 -10.53515625 9.109375 C-3.33506944 0 -3.33506944 0 0 0 Z " fill="#FAFBFD" transform="translate(271,208)"/>
<path d="M0 0 C0.98871094 0.60199219 1.97742188 1.20398438 2.99609375 1.82421875 C8.11057239 4.79014928 12.79072897 5.32220188 18.5625 4.3125 C24.12644783 2.17307418 29.33535523 -0.84384207 34.5625 -3.6875 C40.94275779 -7.07788516 46.2652047 -8.94413393 53.5625 -7.6875 C58.66767812 -5.94464463 63.32182097 -3.35918753 68.0546875 -0.796875 C77.31928662 4.52428112 77.31928662 4.52428112 87.5625 4.3125 C92.41888347 2.25525415 97.05880802 -0.23874513 101.71191406 -2.71289062 C109.12427945 -6.61660601 116.10973899 -9.46426195 124.5625 -7.6875 C131.12938212 -5.16867356 137.32397663 -1.68328045 143.30078125 2 C146.25255581 3.71294689 149.26966659 4.47315031 152.5625 5.3125 C151.9025 6.9625 151.2425 8.6125 150.5625 10.3125 C143.25634119 9.84302795 138.07013328 6.554143 131.85351562 2.90625 C126.19151197 -0.25821671 121.13057514 -2.09882424 114.5625 -1.6875 C110.84085882 -0.54394848 110.84085882 -0.54394848 107.5625 1.4375 C106.66724609 1.9181189 106.66724609 1.9181189 105.75390625 2.40844727 C103.10587242 3.8346128 100.51323936 5.34218833 97.9375 6.89453125 C90.95659961 10.87869644 84.49820943 11.76276312 76.5625 10.3125 C70.9219719 8.26738085 65.76222236 5.26873523 60.5625 2.3125 C54.30728599 -1.09519121 49.6165085 -2.17096102 42.5625 -0.6875 C36.92273308 1.77161508 31.67598469 5.0070849 26.47851562 8.28100586 C20.49756638 11.50087214 13.10559591 11.13038699 6.5625 10.3125 C1.57425369 8.65833981 -2.90656643 5.93537583 -7.4375 3.3125 C-13.604439 0.12042438 -18.3340924 -2.26974652 -25.4375 -1.6875 C-30.12923384 0.01593034 -34.27472728 2.82551323 -38.5 5.4375 C-42.45597902 7.85877928 -45.91639838 9.32965182 -50.4375 10.3125 C-51.0975 8.6625 -51.7575 7.0125 -52.4375 5.3125 C-49.23378221 3.51248689 -46.02376128 1.72401532 -42.8125 -0.0625 C-41.90886719 -0.57039063 -41.00523438 -1.07828125 -40.07421875 -1.6015625 C-24.75962348 -10.09725039 -14.85681015 -8.68882038 0 0 Z " fill="#2A5FA5" transform="translate(136.4375,335.6875)"/>
<path d="M0 0 C0 2.31 0 4.62 0 7 C3.09958263 6.30788391 3.09958263 6.30788391 4.375 3.9375 C6 2 6 2 8.25 1.375 C12.39577403 2.31722137 15.17667546 4.88068176 18 8 C19 11 19 11 18.0625 13.1875 C17.5365625 14.0846875 17.5365625 14.0846875 17 15 C18.65 14.67 20.3 14.34 22 14 C22 14.99 22 15.98 22 17 C21.071875 16.9175 20.14375 16.835 19.1875 16.75 C16.00123223 16.69791918 16.00123223 16.69791918 14.0625 18.5625 C12.57865836 21.96660729 13.24578459 24.43461808 14 28 C15.65 28 17.3 28 19 28 C20.38563669 32.93633072 20.38563669 32.93633072 20 36 C16.2857653 41.01816815 10.87730415 44.18337872 5 46 C1.0625 46.1875 1.0625 46.1875 -2 46 C-2 42.36248886 -0.98791679 41.04442373 0.9375 38 C2.64897888 35.28105483 3.98112637 33.0566209 5 30 C4.21625 29.896875 3.4325 29.79375 2.625 29.6875 C0 29 0 29 -2 26 C-5.06556598 25.26656572 -5.06556598 25.26656572 -8 25 C-8.77131906 28.31184707 -8.77131906 28.31184707 -9 32 C-8.00692179 33.33849671 -7.00642948 34.67151309 -6 36 C-5.72649617 38.71925927 -5.86286049 41.25720976 -6 44 C-11.87905127 43.18204504 -15.11196522 40.34258582 -19 36 C-22.54200394 30.48473482 -23.68277731 25.48638442 -23 19 C-22.34 18.34 -21.68 17.68 -21 17 C-20.649375 17.763125 -20.29875 18.52625 -19.9375 19.3125 C-17.34497636 22.90858118 -15.12552594 23.52103787 -11 25 C-11.26676204 23.01508358 -11.26676204 23.01508358 -12 21 C-12.99 20.67 -13.98 20.34 -15 20 C-14.67 19.01 -14.34 18.02 -14 17 C-12.35 17.33 -10.7 17.66 -9 18 C-8.67 17.01 -8.34 16.02 -8 15 C-6.37667033 13.61423077 -4.71275535 12.27358732 -3 11 C-3.2165625 10.13375 -3.2165625 10.13375 -3.4375 9.25 C-3.95833333 7.16666667 -4.47916667 5.08333333 -5 3 C-5.99 3.33 -6.98 3.66 -8 4 C-8 5.65 -8 7.3 -8 9 C-9.9375 8.1875 -9.9375 8.1875 -12 7 C-12.33 6.01 -12.66 5.02 -13 4 C-8.35615615 1.03309976 -5.50914826 0 0 0 Z " fill="#F8FAFC" transform="translate(255,91)"/>
<path d="M0 0 C4.3725 -0.0825 8.745 -0.165 13.25 -0.25 C14.62317383 -0.28641602 15.99634766 -0.32283203 17.41113281 -0.36035156 C18.49749023 -0.3703418 19.58384766 -0.38033203 20.703125 -0.390625 C21.81333008 -0.41157227 22.92353516 -0.43251953 24.06738281 -0.45410156 C27 0 27 0 29.36254883 1.63745117 C31.46439178 4.67003417 31.5023307 6.51892768 31.49609375 10.19140625 C31.49673828 11.38314453 31.49738281 12.57488281 31.49804688 13.80273438 C31.47806641 15.04345703 31.45808594 16.28417969 31.4375 17.5625 C31.44458984 18.80708984 31.45167969 20.05167969 31.45898438 21.33398438 C31.39555055 30.34646678 31.39555055 30.34646678 29.87402344 32.86035156 C27.08797974 34.55462619 24.82098867 34.3369365 21.58203125 34.29296875 C20.4525708 34.28547607 19.32311035 34.2779834 18.15942383 34.27026367 C16.72493896 34.24295166 15.2904541 34.21563965 13.8125 34.1875 C9.254375 34.125625 4.69625 34.06375 0 34 C0 22.78 0 11.56 0 0 Z " fill="#FBFCFD" transform="translate(559,170)"/>
<path d="M0 0 C0.66 0 1.32 0 2 0 C3.21411133 1.36669922 3.21411133 1.36669922 4.58203125 3.3046875 C5.09531982 4.02430664 5.6086084 4.74392578 6.13745117 5.48535156 C6.69021729 6.27393555 7.2429834 7.06251953 7.8125 7.875 C8.99199548 9.5339907 10.17168852 11.19284096 11.3515625 12.8515625 C11.95645508 13.7065332 12.56134766 14.56150391 13.18457031 15.44238281 C15.45512337 18.64118779 17.75249676 21.81994864 20.05493164 24.99584961 C21.67399203 27.23134903 23.28430699 29.47297501 24.89453125 31.71484375 C26.91957054 34.52658896 28.97895586 37.30664378 31.07421875 40.06640625 C31.7854187 41.01821777 31.7854187 41.01821777 32.51098633 41.98925781 C33.39314347 43.1684147 34.28684301 44.33906145 35.1940918 45.49902344 C37.17782478 48.17592763 38.04168617 49.50312771 37.7578125 52.88671875 C37.38269531 53.93279297 37.38269531 53.93279297 37 55 C35.68 55.33 34.36 55.66 33 56 C25.94157305 47.74734425 19.6971647 39.05246474 13.49755859 30.14990234 C11.13505258 26.75827731 8.7607553 23.37530404 6.375 20 C5.9612915 19.40662842 5.54758301 18.81325684 5.12133789 18.2019043 C3.01346308 15.10763391 3.01346308 15.10763391 0 13 C-0.27602051 13.57854736 -0.55204102 14.15709473 -0.83642578 14.75317383 C-1.97090419 16.94381688 -3.22176413 18.91649802 -4.6171875 20.94921875 C-5.39570068 22.08617187 -5.39570068 22.08617187 -6.18994141 23.24609375 C-7.02404541 24.45458984 -7.02404541 24.45458984 -7.875 25.6875 C-8.44782715 26.52023438 -9.0206543 27.35296875 -9.61083984 28.2109375 C-11.40268656 30.81046711 -13.20003939 33.40608283 -15 36 C-15.57298828 36.82580566 -16.14597656 37.65161133 -16.73632812 38.50244141 C-18.36107571 40.83836906 -19.99150932 43.17017993 -21.625 45.5 C-22.12112793 46.21115967 -22.61725586 46.92231934 -23.12841797 47.6550293 C-23.59393066 48.31543213 -24.05944336 48.97583496 -24.5390625 49.65625 C-24.94334473 50.23181641 -25.34762695 50.80738281 -25.76416016 51.40039062 C-27.07874369 53.1019219 -28.36586537 54.59885197 -30 56 C-32.1875 55.6875 -32.1875 55.6875 -34 55 C-34.85943662 52.11486146 -35.27887443 50.60056472 -33.98706055 47.81860352 C-33.45894775 47.09600342 -32.93083496 46.37340332 -32.38671875 45.62890625 C-31.80317627 44.81454102 -31.21963379 44.00017578 -30.6184082 43.16113281 C-29.9812085 42.30358398 -29.34400879 41.44603516 -28.6875 40.5625 C-28.04321045 39.67014648 -27.3989209 38.77779297 -26.73510742 37.85839844 C-25.43477052 36.05945071 -24.1282669 34.2649433 -22.81542969 32.47509766 C-20.85354098 29.80032255 -18.91861001 27.10772265 -16.9934082 24.40649414 C-16.21079232 23.30869618 -15.4255008 22.2128004 -14.63745117 21.11889648 C-12.37740215 17.97446013 -10.1758704 14.79725931 -8.01171875 11.5859375 C-7.50987061 10.84375977 -7.00802246 10.10158203 -6.4909668 9.33691406 C-5.51375506 7.88717797 -4.54233599 6.43351657 -3.57739258 4.97558594 C-2.43505374 3.28214267 -1.22358925 1.63570091 0 0 Z " fill="#255BA3" transform="translate(187,163)"/>
<path d="M0 0 C3.03527126 1.24275186 5.63762999 2.70711146 8 5 C8 5.66 8 6.32 8 7 C8.66 7 9.32 7 10 7 C10.66 7.99 11.32 8.98 12 10 C15.65043683 9.60646972 15.65043683 9.60646972 18.375 7.375 C20 6 20 6 23.375 6.125 C27.67181679 7.16216267 30.77508219 8.19178799 33.3125 11.9375 C34 14 34 14 34 18 C10.57 18 -12.86 18 -37 18 C-37 13 -37 13 -35.82421875 11.203125 C-33.38913114 9.59711433 -31.71137953 9.73364525 -28.8125 9.75 C-22.25898335 9.35939305 -19.42512112 6.51905058 -15 2 C-10.30742057 -1.12838629 -5.48964065 -0.699185 0 0 Z " fill="#FAFBFC" transform="translate(130,119)"/>
<path d="M0 0 C4.28499131 2.10539616 6.46179231 4.88248667 8.33203125 9.23828125 C9.85092196 14.1814167 9.7450871 17.93668988 7.3046875 22.63671875 C4.29282035 26.21839861 0.90209833 30.03170963 -3.9609375 30.625 C-9.52121123 30.80466871 -12.72764597 30.27777923 -17.0078125 26.38671875 C-20.06426757 22.6591373 -21.84400172 19.57434688 -22.5078125 14.76171875 C-21.47362573 7.78095803 -18.45106666 4.44020589 -13.0078125 0.38671875 C-9.04953171 -1.59242165 -4.1736899 -1.27484302 0 0 Z " fill="#285DA4" transform="translate(128.0078125,248.61328125)"/>
<path d="M0 0 C-1.32 2.64 -2.64 5.28 -4 8 C-37 8 -70 8 -104 8 C-104.66 6.35 -105.32 4.7 -106 3 C-34.20288695 -0.28371058 -34.20288695 -0.28371058 0 0 Z " fill="#F9FAFC" transform="translate(315,283)"/>
<path d="M0 0 C4.58395782 -0.10771702 9.16539636 -0.18719721 13.75 -0.25 C15.05195312 -0.28351563 16.35390625 -0.31703125 17.6953125 -0.3515625 C18.94570312 -0.36445313 20.19609375 -0.37734375 21.484375 -0.390625 C22.63647461 -0.41157227 23.78857422 -0.43251953 24.97558594 -0.45410156 C28.64619964 0.09702384 29.78894012 1.07313891 32 4 C32.56640625 6.875 32.56640625 6.875 32.5625 10 C32.58441406 11.03125 32.60632812 12.0625 32.62890625 13.125 C31.7769755 17.01954057 30.31027271 17.86510579 27 20 C23.95385742 20.45410156 23.95385742 20.45410156 20.60546875 20.390625 C19.40341797 20.37773437 18.20136719 20.36484375 16.96289062 20.3515625 C15.71701172 20.31804687 14.47113281 20.28453125 13.1875 20.25 C11.28967773 20.22292969 11.28967773 20.22292969 9.35351562 20.1953125 C6.23535263 20.14824589 3.11757962 20.07650502 0 20 C0 13.4 0 6.8 0 0 Z " fill="#F3F5F8" transform="translate(1092,218)"/>
<path d="M0 0 C4.41731521 -0.1077394 8.83201394 -0.18720629 13.25 -0.25 C15.13138672 -0.30027344 15.13138672 -0.30027344 17.05078125 -0.3515625 C18.25605469 -0.36445313 19.46132812 -0.37734375 20.703125 -0.390625 C21.81333008 -0.41157227 22.92353516 -0.43251953 24.06738281 -0.45410156 C27.672994 0.10420986 28.81507342 1.13181683 31 4 C31.56640625 6.875 31.56640625 6.875 31.5625 10 C31.58441406 11.03125 31.60632812 12.0625 31.62890625 13.125 C30.77816097 17.01412128 29.29935572 17.86192695 26 20 C23.0456543 20.45410156 23.0456543 20.45410156 19.82421875 20.390625 C18.66728516 20.37773437 17.51035156 20.36484375 16.31835938 20.3515625 C15.12017578 20.31804687 13.92199219 20.28453125 12.6875 20.25 C10.8612207 20.22292969 10.8612207 20.22292969 8.99804688 20.1953125 C5.99836045 20.1482586 2.99907948 20.07651797 0 20 C0 13.4 0 6.8 0 0 Z " fill="#F8F9FB" transform="translate(1093,170)"/>
<path d="M0 0 C1.70884005 1.62339805 3.37446717 3.29319053 5 5 C5 5.66 5 6.32 5 7 C5.66 7 6.32 7 7 7 C8.20166016 8.41430664 8.20166016 8.41430664 9.5390625 10.41015625 C10.2810791 11.51423828 10.2810791 11.51423828 11.03808594 12.640625 C11.56176758 13.43984375 12.08544922 14.2390625 12.625 15.0625 C13.42599121 16.27486328 13.42599121 16.27486328 14.24316406 17.51171875 C27 37.08805387 27 37.08805387 27 42 C26.45472656 41.855625 25.90945313 41.71125 25.34765625 41.5625 C17.93907869 39.73885014 11.09974266 38.65894463 4 42 C3.01 42 2.02 42 1 42 C1.2165625 41.12214844 1.2165625 41.12214844 1.4375 40.2265625 C3.88977442 28.88479331 4.85187846 15.86118095 0.65625 4.84765625 C0 3 0 3 0 0 Z " fill="#F7F9FB" transform="translate(285,227)"/>
<path d="M0 0 C1.25908676 0.00222061 2.51817352 0.00444122 3.81541443 0.00672913 C4.50806396 0.0065831 5.2007135 0.00643707 5.91435242 0.00628662 C8.21400537 0.00698577 10.51357828 0.01477823 12.81321716 0.02259827 C14.40362504 0.02446244 15.99403349 0.02588635 17.58444214 0.02688599 C21.77827021 0.03071123 25.97206386 0.04054156 30.1658783 0.05158997 C34.44220006 0.06180395 38.71852736 0.06638358 42.99485779 0.07142639 C51.39135799 0.08216383 59.78783017 0.09924032 68.18431091 0.12025452 C68.22703191 1.78637357 68.22494923 3.45408337 68.18431091 5.12025452 C67.18431091 6.12025452 67.18431091 6.12025452 64.40658569 6.24050903 C63.16526382 6.23828842 61.92394196 6.23606781 60.64500427 6.23377991 C59.96210831 6.23392593 59.27921234 6.23407196 58.57562256 6.23422241 C56.30843477 6.23352328 54.04132818 6.22573092 51.77415466 6.21791077 C50.20616704 6.21604659 48.63817884 6.21462268 47.07019043 6.21362305 C42.93554589 6.20979786 38.80093625 6.19996758 34.66630554 6.18891907 C30.45030693 6.17870496 26.2343027 6.17412543 22.01829529 6.16908264 C13.74028444 6.1583453 5.46230202 6.14126888 -2.81568909 6.12025452 C-3.19787676 4.46410794 -3.5296401 2.79568427 -3.81568909 1.12025452 C-2.81568909 0.12025452 -2.81568909 0.12025452 0 0 Z " fill="#3366A8" transform="translate(211.81568908691406,299.87974548339844)"/>
<path d="M0 0 C1.22355698 0.00222061 2.44711395 0.00444122 3.70774841 0.00672913 C4.71746201 0.00651009 4.71746201 0.00651009 5.74757385 0.00628662 C7.98229649 0.00698573 10.21693674 0.01477799 12.4516449 0.02259827 C13.99721226 0.02446245 15.54278022 0.02588635 17.08834839 0.02688599 C21.16380941 0.03071112 25.23923502 0.04054135 29.31468201 0.05158997 C33.47035747 0.0618042 37.62603864 0.06638363 41.78172302 0.07142639 C49.94124452 0.08216363 58.10073718 0.09923998 66.26023865 0.12025452 C67.38523865 3.87025452 67.38523865 3.87025452 66.26023865 6.12025452 C43.49023865 6.12025452 20.72023865 6.12025452 -2.73976135 6.12025452 C-3.06976135 4.47025452 -3.39976135 2.82025452 -3.73976135 1.12025452 C-2.73976135 0.12025452 -2.73976135 0.12025452 0 0 Z " fill="#3668AA" transform="translate(124.73976135253906,290.87974548339844)"/>
<path d="M0 0 C2.97 0 5.94 0 9 0 C11.0700132 2.0700132 10.16409695 6.48765925 10.16796875 9.33984375 C10.17129715 10.17713516 10.17462555 11.01442657 10.17805481 11.87709045 C10.18312756 13.65169728 10.18546303 15.42631367 10.18530273 17.20092773 C10.18748797 19.92252256 10.20563633 22.64371143 10.22460938 25.36523438 C10.22754342 27.08593611 10.22952814 28.80663977 10.23046875 30.52734375 C10.23765427 31.34508774 10.24483978 32.16283173 10.25224304 33.00535583 C10.22882204 38.77117796 10.22882204 38.77117796 8 41 C5.36 41 2.72 41 0 41 C0 27.47 0 13.94 0 0 Z " fill="#F8FAFC" transform="translate(154,243)"/>
<path d="M0 0 C2.97 0 5.94 0 9 0 C9 13.2 9 26.4 9 40 C6.03 40 3.06 40 0 40 C-1.84276509 38.15723491 -1.12874411 35.57036241 -1.13894653 33.11865234 C-1.1369223 32.29574707 -1.13489807 31.4728418 -1.1328125 30.625 C-1.13376923 29.78533691 -1.13472595 28.94567383 -1.13571167 28.08056641 C-1.13639348 26.30175705 -1.13453917 24.52294523 -1.13037109 22.74414062 C-1.12502283 20.01166224 -1.13031605 17.27934824 -1.13671875 14.546875 C-1.13605797 12.8229163 -1.13477681 11.09895771 -1.1328125 9.375 C-1.13483673 8.55209473 -1.13686096 7.72918945 -1.13894653 6.88134766 C-1.11495054 1.11495054 -1.11495054 1.11495054 0 0 Z " fill="#FDFEFE" transform="translate(80,243)"/>
<path d="M0 0 C2 1 2 1 3 3.66015625 C4.01204222 7.10347176 5.01510131 10.5488181 6 14 C6.23203125 14.72058594 6.4640625 15.44117188 6.703125 16.18359375 C9.74402358 26.28372118 8.72060398 36.81216651 3.91015625 46.10546875 C2.98162596 47.76096226 1.99671226 49.38463875 1 51 C0.67 51 0.34 51 0 51 C0 34.17 0 17.34 0 0 Z " fill="#E5EBF3" transform="translate(276,222)"/>
<path d="M0 0 C4.46169385 0.79673104 5.85725313 1.97179109 8.5 5.625 C9.62609115 9.56631902 9.91447672 11.64334462 8.3125 15.4375 C5.61823908 18.68919421 3.72423438 19.38547588 -0.375 20.1875 C-4.45697035 19.45274534 -5.94193945 17.85934861 -8.421875 14.62890625 C-9.5 12.625 -9.5 12.625 -9.6875 9 C-7.80684623 3.65498401 -5.69007126 1.01608415 0 0 Z " fill="#F7F9FB" transform="translate(121.5,253.375)"/>
<path d="M0 0 C0.77943466 0.00222061 1.55886932 0.00444122 2.36192322 0.00672913 C3.68317955 0.00684242 3.68317955 0.00684242 5.03112793 0.00695801 C5.98841293 0.01211929 6.94569794 0.01728058 7.93199158 0.02259827 C9.39480812 0.02472069 9.39480812 0.02472069 10.88717651 0.02688599 C14.01542675 0.03250319 17.14360656 0.04505859 20.27183533 0.05775452 C22.38706867 0.0627673 24.50230313 0.06733059 26.61753845 0.07142639 C31.81482829 0.0824782 37.01207678 0.09923305 42.20933533 0.12025452 C42.70433533 2.59525452 42.70433533 2.59525452 43.20933533 5.12025452 C40.90113025 6.27435706 39.60149256 6.24128422 37.03501892 6.23377991 C35.74390701 6.23366661 35.74390701 6.23366661 34.42671204 6.23355103 C33.4964621 6.22838974 32.56621216 6.22322845 31.60777283 6.21791077 C30.65617279 6.21649582 29.70457275 6.21508087 28.72413635 6.21362305 C25.67750436 6.20801464 22.6309452 6.19546071 19.58433533 6.18275452 C17.52183639 6.1777406 15.4593363 6.17317751 13.39683533 6.16908264 C8.33430716 6.15804247 3.2718336 6.14077219 -1.79066467 6.12025452 C-2.17285234 4.46410794 -2.50461569 2.79568427 -2.79066467 1.12025452 C-1.79066467 0.12025452 -1.79066467 0.12025452 0 0 Z " fill="#3769AA" transform="translate(64.79066467285156,290.87974548339844)"/>
<path d="M0 0 C2.54576578 0.4208607 5.041909 0.89753748 7.5625 1.4375 C8.27341797 1.58509766 8.98433594 1.73269531 9.71679688 1.88476562 C11.47893858 2.25138571 13.23961321 2.62504397 15 3 C13.07289294 13.55808656 13.07289294 13.55808656 11 18 C5.72684667 17.5547115 0.98229776 16.91626837 -4 15 C-4.48505249 9.98779095 -2.83239749 5.59523515 -1 1 C-0.67 0.67 -0.34 0.34 0 0 Z " fill="#E6ECF4" transform="translate(208,252)"/>
<path d="M0 0 C0.85049423 0.00222061 1.70098846 0.00444122 2.57725525 0.00672913 C4.01863609 0.00684242 4.01863609 0.00684242 5.48913574 0.00695801 C7.05630592 0.01469994 7.05630592 0.01469994 8.65513611 0.02259827 C9.71913132 0.02401321 10.78312653 0.02542816 11.87936401 0.02688599 C15.29293069 0.03250388 18.70643286 0.04505941 22.11997986 0.05775452 C24.42792162 0.06276721 26.73586441 0.06733052 29.04380798 0.07142639 C34.71505412 0.08247912 40.38626238 0.09923465 46.05747986 0.12025452 C45.72747986 1.77025452 45.39747986 3.42025452 45.05747986 5.12025452 C29.54747986 5.12025452 14.03747986 5.12025452 -1.94252014 5.12025452 C-2.27252014 3.80025452 -2.60252014 2.48025452 -2.94252014 1.12025452 C-1.94252014 0.12025452 -1.94252014 0.12025452 0 0 Z " fill="#2158A1" transform="translate(135.94252014160156,300.87974548339844)"/>
<path d="M0 0 C6.31011736 0.78876467 12.1517479 3.95978992 17 8 C17.86625 7.236875 18.7325 6.47375 19.625 5.6875 C22.56780391 3.25135809 25.41459315 1.40298529 29 0 C31.375 0.3125 31.375 0.3125 33 1 C33 2.32 33 3.64 33 5 C31.824375 5.515625 30.64875 6.03125 29.4375 6.5625 C26.05281176 8.21298402 23.83877347 10.03026049 21.3125 12.8125 C18.32497601 15.96976967 18.32497601 15.96976967 15.3125 16.25 C13 15 13 15 11.3125 12.75 C7.95682247 8.75946455 3.69627044 7.10615182 -1 5 C-0.67 3.35 -0.34 1.7 0 0 Z " fill="#2D61A6" transform="translate(169,78)"/>
<path d="M0 0 C1.3606152 0.03962957 2.72061697 0.11085657 4.078125 0.2109375 C4.77550781 0.23800781 5.47289063 0.26507813 6.19140625 0.29296875 C7.90498205 0.36338967 9.61695802 0.47100837 11.328125 0.5859375 C12.16661304 2.04131318 12.99876434 3.50034123 13.828125 4.9609375 C14.52421875 6.17910156 14.52421875 6.17910156 15.234375 7.421875 C16.328125 9.5859375 16.328125 9.5859375 16.328125 11.5859375 C7.748125 11.5859375 -0.831875 11.5859375 -9.671875 11.5859375 C-5.38096591 0.85866477 -5.38096591 0.85866477 0 0 Z " fill="#F1F4F9" transform="translate(118.671875,226.4140625)"/>
<path d="M0 0 C4.22441939 2.31797168 8.22212877 5.00918528 12 8 C12.43570313 7.60167969 12.87140625 7.20335938 13.3203125 6.79296875 C16.97702311 3.539921 20.35912705 0.75321867 25 -1 C27.375 -0.6875 27.375 -0.6875 29 0 C29 1.32 29 2.64 29 4 C28.02160156 4.41958984 28.02160156 4.41958984 27.0234375 4.84765625 C20.78414028 7.70963477 17.10239663 10.4941519 13 16 C9.0654635 15.30180459 8.10067827 13.83272983 5.703125 10.69921875 C2.17260941 7.17680067 -2.56786554 5.18890003 -7 3 C-7 2.01 -7 1.02 -7 0 C-4.16233471 -1.41883264 -3.04967323 -0.92816142 0 0 Z " fill="#2E62A6" transform="translate(147,65)"/>
<path d="M0 0 C2.22413155 3.91821306 3.3628885 8.14118441 4.625 12.4375 C4.85445312 13.18837891 5.08390625 13.93925781 5.3203125 14.71289062 C5.536875 15.44572266 5.7534375 16.17855469 5.9765625 16.93359375 C6.17330566 17.59415771 6.37004883 18.25472168 6.57275391 18.93530273 C7 21 7 21 7 26 C2.38 26 -2.24 26 -7 26 C-5.87546762 19.90878293 -4.51963181 13.92342275 -2.9375 7.9375 C-2.7631543 7.27032959 -2.58880859 6.60315918 -2.40917969 5.91577148 C-1.12278906 1.12278906 -1.12278906 1.12278906 0 0 Z " fill="#F1F2F6" transform="translate(685,193)"/>
<path d="M0 0 C2.97 0 5.94 0 9 0 C13 6.625 13 6.625 13 10 C12.35546875 10.59296875 11.7109375 11.1859375 11.046875 11.796875 C8.39643639 14.64963717 8.41686212 16.41217117 8.25 20.25 C8.19328125 21.32765625 8.1365625 22.4053125 8.078125 23.515625 C8.05234375 24.33546875 8.0265625 25.1553125 8 26 C3.28102914 21.55346457 0.7533395 16.47871974 0 10 C-0.07205794 6.66474687 -0.05828769 3.33535138 0 0 Z " fill="#FAFBFD" transform="translate(65,229)"/>
<path d="M0 0 C11.22 0 22.44 0 34 0 C34.495 2.475 34.495 2.475 35 5 C23.45 5 11.9 5 0 5 C0 3.35 0 1.7 0 0 Z " fill="#2158A1" transform="translate(196,314)"/>
<path d="M0 0 C10.89 0 21.78 0 33 0 C33.495 2.475 33.495 2.475 34 5 C22.45 5 10.9 5 -1 5 C-0.67 3.35 -0.34 1.7 0 0 Z " fill="#2158A1" transform="translate(96,314)"/>
<path d="M0 0 C10.56 0 21.12 0 32 0 C32.495 2.475 32.495 2.475 33 5 C21.78 5 10.56 5 -1 5 C-0.67 3.35 -0.34 1.7 0 0 Z " fill="#2158A1" transform="translate(247,314)"/>
<path d="M0 0 C10.56 0 21.12 0 32 0 C31.67 1.65 31.34 3.3 31 5 C20.77 5 10.54 5 0 5 C0 3.35 0 1.7 0 0 Z " fill="#2259A1" transform="translate(65,301)"/>
<path d="M0 0 C1.25159912 0.00523682 2.50319824 0.01047363 3.79272461 0.01586914 C4.78942421 0.01799156 4.78942421 0.01799156 5.80625916 0.02015686 C7.93590735 0.02577021 10.06545175 0.03832485 12.19506836 0.05102539 C13.63582205 0.05603868 15.07657739 0.06060188 16.51733398 0.06469727 C20.05577938 0.07574394 23.59416375 0.09301747 27.13256836 0.11352539 C27.46256836 1.76352539 27.79256836 3.41352539 28.13256836 5.11352539 C17.90256836 5.11352539 7.67256836 5.11352539 -2.86743164 5.11352539 C-3.19743164 3.79352539 -3.52743164 2.47352539 -3.86743164 1.11352539 C-2.86743164 0.11352539 -2.86743164 0.11352539 0 0 Z " fill="#2259A1" transform="translate(152.867431640625,313.886474609375)"/>
<path d="M0 0 C0 0.33 0 0.66 0 1 C-10.66441713 2.2138361 -21.28270321 2.09531193 -32 2 C-21.15457027 -6.22756738 -11.84128005 -6.79777188 0 0 Z " fill="#EDF1F7" transform="translate(314,276)"/>
<path d="M0 0 C3.0625 0.3125 3.0625 0.3125 4.9375 1.5 C6.48479478 3.99286381 6.56655716 5.43217335 6.0625 8.3125 C4.375 10.1875 4.375 10.1875 2.0625 11.3125 C-1.30786311 11.07175978 -2.52548021 10.72451979 -4.9375 8.3125 C-5.1875 5.3125 -5.1875 5.3125 -4.9375 2.3125 C-2.9375 0.3125 -2.9375 0.3125 0 0 Z " fill="#295EA5" transform="translate(212.9375,255.6875)"/>
<path d="M0 0 C3.38031206 1.24317262 5.39178853 3.2043759 7.75 5.875 C8.36359375 6.55304688 8.9771875 7.23109375 9.609375 7.9296875 C11 10 11 10 11 14 C8.76953125 14.30078125 8.76953125 14.30078125 6 14 C3.76171875 11.91796875 3.76171875 11.91796875 1.6875 9.1875 C0.99011719 8.29417969 0.29273438 7.40085937 -0.42578125 6.48046875 C-2 4 -2 4 -2 1 C-1.34 0.67 -0.68 0.34 0 0 Z " fill="#3365A8" transform="translate(225,71)"/>
<path d="M0 0 C0 1.32 0 2.64 0 4 C-4.03119502 7.38100228 -8.96125566 8.0668992 -14 9 C-14.33 7.35 -14.66 5.7 -15 4 C-13.25705322 3.13153169 -11.50531337 2.28069373 -9.75 1.4375 C-8.77546875 0.96183594 -7.8009375 0.48617187 -6.796875 -0.00390625 C-3.90143703 -1.03510273 -2.80033839 -1.11346788 0 0 Z " fill="#3366A9" transform="translate(225,128)"/>
<path d="M0 0 C2.475 0.495 2.475 0.495 5 1 C8.62870159 10.41002278 8.62870159 10.41002278 7 15 C6.01 15.33 5.02 15.66 4 16 C4 15.34 4 14.68 4 14 C3.34 14 2.68 14 2 14 C0.66416101 9.15758367 -0.25328119 5.06562383 0 0 Z " fill="#3466A9" transform="translate(264,148)"/>
<path d="M0 0 C1.32 0.33 2.64 0.66 4 1 C3.32584613 6.2584002 1.75734451 11.02638346 0 16 C-1.32 16 -2.64 16 -4 16 C-4.5326514 9.741346 -2.81849506 5.54891215 0 0 Z " fill="#3164A8" transform="translate(269,63)"/>
<path d="M0 0 C3.77235429 0.57053665 5.62716051 2.16643421 8.3125 4.8125 C9.38951172 5.84310547 9.38951172 5.84310547 10.48828125 6.89453125 C12 9 12 9 11.73046875 11.26171875 C11.36888672 12.12216797 11.36888672 12.12216797 11 13 C6.75128382 12.50750176 4.91041775 11.40926002 2.125 8.1875 C1.50882812 7.50042969 0.89265625 6.81335938 0.2578125 6.10546875 C-1 4 -1 4 -0.6953125 1.73828125 C-0.46585937 1.16464844 -0.23640625 0.59101563 0 0 Z " fill="#2F63A7" transform="translate(280,140)"/>
<path d="M0 0 C0.87591797 0.34224609 0.87591797 0.34224609 1.76953125 0.69140625 C1.1697799 4.24193423 -0.20318629 6.23587622 -2.54296875 8.94140625 C-3.13722656 9.6478125 -3.73148437 10.35421875 -4.34375 11.08203125 C-6.23046875 12.69140625 -6.23046875 12.69140625 -10.23046875 12.69140625 C-10.09531325 7.15003077 -7.80487396 4.68174216 -4.1171875 0.9140625 C-2.23046875 -0.30859375 -2.23046875 -0.30859375 0 0 Z " fill="#2D61A6" transform="translate(289.23046875,74.30859375)"/>
<path d="M0 0 C1.65 0 3.3 0 5 0 C7.29612756 9.41002278 7.29612756 9.41002278 7 14 C5.35 14.33 3.7 14.66 2 15 C0.53329887 9.77487721 -0.22577402 5.4185766 0 0 Z " fill="#2F63A7" transform="translate(245,63)"/>
<path d="M0 0 C1.32 0.33 2.64 0.66 4 1 C4 5 4 5 1.6875 7.5625 C0.800625 8.366875 -0.08625 9.17125 -1 10 C-1.515625 10.598125 -2.03125 11.19625 -2.5625 11.8125 C-4 13 -4 13 -8 13 C-7.48118887 8.8275894 -6.28848726 6.74583179 -3.4375 3.6875 C-2.79683594 2.99011719 -2.15617188 2.29273438 -1.49609375 1.57421875 C-1.00238281 1.05472656 -0.50867188 0.53523437 0 0 Z " fill="#2F63A7" transform="translate(232,142)"/>
<path d="M0 0 C5.34844008 0.53484401 9.35796103 2.46690767 14 5 C14 6.32 14 7.64 14 9 C8.22621075 8.5188509 4.04140164 6.81532819 -1 4 C-0.67 2.68 -0.34 1.36 0 0 Z " fill="#3164A8" transform="translate(209,91)"/>
<path d="M0 0 C3.1778726 0.49654259 6.20157738 1.30366949 9.25 2.3125 C10.27867187 2.64701172 10.27867187 2.64701172 11.328125 2.98828125 C13 4 13 4 13.734375 6.10546875 C13.82203125 6.73066406 13.9096875 7.35585937 14 8 C10.91863039 8.92718689 9.38328753 9.14268368 6.32421875 8.00390625 C5.45410156 7.52824219 4.58398438 7.05257812 3.6875 6.5625 C2.80449219 6.08941406 1.92148437 5.61632812 1.01171875 5.12890625 C0.34785156 4.75636719 -0.31601562 4.38382813 -1 4 C-0.67 2.68 -0.34 1.36 0 0 Z " fill="#3265A8" transform="translate(290,126)"/>
<path d="M0 0 C0.0625 2.25 0.0625 2.25 -1 5 C-5.24008999 7.68653475 -8.97897213 9 -14 9 C-14 7.35 -14 5.7 -14 4 C-4.58997722 -0.59225513 -4.58997722 -0.59225513 0 0 Z " fill="#2F63A7" transform="translate(303,91)"/>
<path d="M0 0 C1.32 0 2.64 0 4 0 C4.22577402 5.4185766 3.46670113 9.77487721 2 15 C0.35 15 -1.3 15 -3 15 C-2.66666667 12.66666667 -2.33333333 10.33333333 -2 8 C-1.835 6.72125 -1.67 5.4425 -1.5 4.125 C-1 1 -1 1 0 0 Z " fill="#2B60A5" transform="translate(246,149)"/>
<path d="M0 0 C4.95 0 9.9 0 15 0 C14.67 1.65 14.34 3.3 14 5 C9.71 5 5.42 5 1 5 C0.67 3.35 0.34 1.7 0 0 Z " fill="#2E62A7" transform="translate(204,111)"/>
<path d="M0 0 C1.79244141 0.01740234 1.79244141 0.01740234 3.62109375 0.03515625 C5.41740234 0.04869141 5.41740234 0.04869141 7.25 0.0625 C8.17683594 0.07410156 9.10367187 0.08570312 10.05859375 0.09765625 C10.62109375 2.03515625 10.62109375 2.03515625 11.05859375 4.09765625 C10.05859375 5.09765625 10.05859375 5.09765625 7.1171875 5.1953125 C5.32474609 5.17791016 5.32474609 5.17791016 3.49609375 5.16015625 C1.69978516 5.14662109 1.69978516 5.14662109 -0.1328125 5.1328125 C-1.05964844 5.12121094 -1.98648437 5.10960938 -2.94140625 5.09765625 C-3.50390625 3.16015625 -3.50390625 3.16015625 -3.94140625 1.09765625 C-2.94140625 0.09765625 -2.94140625 0.09765625 0 0 Z " fill="#285EA4" transform="translate(296.94140625,109.90234375)"/>
<path d="M0 0 C0.9075 0.309375 1.815 0.61875 2.75 0.9375 C4.35875 1.4634375 4.35875 1.4634375 6 2 C6.70125 2.268125 7.4025 2.53625 8.125 2.8125 C10.86617411 3.08661741 11.91974909 1.6776217 14 0 C14.99 0 15.98 0 17 0 C17 0.99 17 1.98 17 3 C15.35666496 4.03789581 13.68756133 5.03567924 12 6 C11.01 7.485 11.01 7.485 10 9 C7 9 7 9 4.4375 6.5625 C3.633125 5.716875 2.82875 4.87125 2 4 C1.34 3.67 0.68 3.34 0 3 C0 2.01 0 1.02 0 0 Z " fill="#3265A8" transform="translate(94,83)"/>
<path d="M0 0 C1.45823212 -0.0270043 2.91660675 -0.04639787 4.375 -0.0625 C5.18710938 -0.07410156 5.99921875 -0.08570313 6.8359375 -0.09765625 C9 0 9 0 11 1 C10.125 4.875 10.125 4.875 9 6 C6.125 6.3125 6.125 6.3125 3 6 C1.125 4.125 1.125 4.125 0 2 C0 1.34 0 0.68 0 0 Z " fill="#3164A8" transform="translate(70,314)"/>
<path d="M0 0 C2.75566251 2.75566251 2.45934233 5.21539633 3 9 C3.66 9.66 4.32 10.32 5 11 C4.67 11.99 4.34 12.98 4 14 C2.02 13.34 0.04 12.68 -2 12 C-2.26252625 7.66831683 -1.29243536 4.1196377 0 0 Z " fill="#E1E8F2" transform="translate(206,255)"/>
<path d="M0 0 C1.23556641 0.01740234 1.23556641 0.01740234 2.49609375 0.03515625 C3.32238281 0.04417969 4.14867187 0.05320312 5 0.0625 C5.63808594 0.07410156 6.27617187 0.08570313 6.93359375 0.09765625 C6.27359375 1.74765625 5.61359375 3.39765625 4.93359375 5.09765625 C2.62359375 5.09765625 0.31359375 5.09765625 -2.06640625 5.09765625 C-2.62890625 3.16015625 -2.62890625 3.16015625 -3.06640625 1.09765625 C-2.06640625 0.09765625 -2.06640625 0.09765625 0 0 Z " fill="#2259A1" transform="translate(298.06640625,313.90234375)"/>
<path d="M0 0 C0.88300781 0.19464844 1.76601562 0.38929688 2.67578125 0.58984375 C3.33964844 0.74582031 4.00351563 0.90179688 4.6875 1.0625 C4.6875 1.3925 4.6875 1.7225 4.6875 2.0625 C-1.2525 2.0625 -7.1925 2.0625 -13.3125 2.0625 C-8.68385186 -1.02326542 -5.35505433 -1.21381231 0 0 Z " fill="#8CA8CE" transform="translate(74.3125,218.9375)"/>
<path d="M0 0 C1.84765625 0.33984375 1.84765625 0.33984375 4.0625 0.9375 C5.16271484 1.22947266 5.16271484 1.22947266 6.28515625 1.52734375 C7.13400391 1.76130859 7.13400391 1.76130859 8 2 C5.33333333 3.33333333 2.66666667 4.66666667 0 6 C-0.38218767 4.34385343 -0.71395102 2.67542976 -1 1 C-0.67 0.67 -0.34 0.34 0 0 Z " fill="#F3F6FA" transform="translate(208,252)"/>
<path d="M0 0 C0.66 0.33 1.32 0.66 2 1 C1.34 1.66 0.68 2.32 0 3 C-0.16687448 5.58354218 -0.16687448 5.58354218 0 8 C-1.9375 7.1875 -1.9375 7.1875 -4 6 C-4.33 5.01 -4.66 4.02 -5 3 C-2.625 1.4375 -2.625 1.4375 0 0 Z " fill="#F0F4F9" transform="translate(247,92)"/>
<path d="M0 0 C1.98 0.495 1.98 0.495 4 1 C4 2.32 4 3.64 4 5 C2.35 5 0.7 5 -1 5 C-0.67 3.35 -0.34 1.7 0 0 Z " fill="#F7F9FB" transform="translate(68,201)"/>
<path d="M0 0 C2.01822917 0.06510417 4.03645833 0.13020833 6.0546875 0.1953125 C5.7246875 0.8553125 5.3946875 1.5153125 5.0546875 2.1953125 C2.57056543 3.02335319 0.70248443 3.1953125 -1.9453125 3.1953125 C-2.6053125 2.8653125 -3.2653125 2.5353125 -3.9453125 2.1953125 C-1.9453125 0.1953125 -1.9453125 0.1953125 0 0 Z " fill="#84A2CB" transform="translate(67.9453125,210.8046875)"/>
</svg>
