<svg width="155" height="25" viewBox="0 0 155 25" fill="none" xmlns="http://www.w3.org/2000/svg">
<path d="M10.404 5.064V24H6.192V5.064H0.576V1.32H16.056V5.064H10.404ZM23.866 6.18C24.322 6.18 24.694 6.216 24.982 6.288C25.27 6.36 25.45 6.408 25.522 6.432V10.284H24.118C23.158 10.284 22.378 10.596 21.778 11.22C21.178 11.844 20.878 12.876 20.878 14.316V24H16.918V6.576H20.194L20.662 9.132H20.878C21.166 8.268 21.538 7.56 21.994 7.008C22.45 6.456 23.074 6.18 23.866 6.18ZM32.8289 6.18C34.7969 6.18 36.2729 6.624 37.2569 7.512C38.2409 8.4 38.7329 9.66 38.7329 11.292V19.896C38.7329 20.28 38.8169 20.568 38.9849 20.76C39.1769 20.952 39.4049 21.048 39.6689 21.048H40.4609V23.856C39.8369 24.216 39.0449 24.396 38.0849 24.396C37.3169 24.396 36.6569 24.192 36.1049 23.784C35.5769 23.352 35.2169 22.8 35.0249 22.128H34.8809C34.3289 22.896 33.7169 23.472 33.0449 23.856C32.3969 24.216 31.5329 24.396 30.4529 24.396C29.3489 24.396 28.3409 24.036 27.4289 23.316C26.5169 22.572 26.0609 21.3 26.0609 19.5C26.0609 17.268 26.8169 15.696 28.3289 14.784C29.8409 13.872 31.9769 13.416 34.7369 13.416V11.616C34.7369 10.92 34.6049 10.38 34.3409 9.996C34.0769 9.612 33.5969 9.42 32.9009 9.42C32.1809 9.42 31.6529 9.612 31.3169 9.996C31.0049 10.356 30.8489 10.776 30.8489 11.256V11.76H26.9249C26.9009 11.64 26.8889 11.388 26.8889 11.004C26.8889 9.564 27.4289 8.4 28.5089 7.512C29.5889 6.624 31.0289 6.18 32.8289 6.18ZM34.7369 16.296C31.6889 16.296 30.1649 17.244 30.1649 19.14C30.1649 20.436 30.8129 21.084 32.1089 21.084C32.9969 21.084 33.6569 20.736 34.0889 20.04C34.5209 19.32 34.7369 18.408 34.7369 17.304V16.296ZM46.2549 24L40.8549 6.576H45.0309L47.2629 14.064C47.4549 14.712 47.6229 15.408 47.7669 16.152C47.9109 16.872 47.9949 17.328 48.0189 17.52L48.3429 19.284H48.4869C48.5589 18.9 48.6789 18.204 48.8469 17.196C48.8709 16.98 48.9429 16.548 49.0629 15.9C49.1829 15.228 49.3149 14.616 49.4589 14.064L51.6909 6.576H55.6869L50.2509 24H46.2549ZM63.497 6.18C65.609 6.18 67.181 6.924 68.213 8.412C69.269 9.9 69.797 12.204 69.797 15.324V16.296H60.977C61.001 17.928 61.205 19.152 61.589 19.968C61.997 20.76 62.681 21.156 63.641 21.156C64.337 21.156 64.877 20.868 65.261 20.292C65.669 19.692 65.873 18.876 65.873 17.844H69.797C69.797 20.004 69.233 21.636 68.105 22.74C66.977 23.844 65.489 24.396 63.641 24.396C59.081 24.396 56.801 21.372 56.801 15.324C56.801 9.228 59.033 6.18 63.497 6.18ZM63.497 9.42C62.681 9.42 62.069 9.756 61.661 10.428C61.277 11.1 61.061 12.096 61.013 13.416H65.657C65.657 12.12 65.477 11.136 65.117 10.464C64.757 9.768 64.217 9.42 63.497 9.42ZM72.675 0.0599992H76.635V24H72.675V0.0599992Z" fill="black"/>
<path d="M95.3896 24V9.564C95.3896 8.868 95.4016 8.16 95.4256 7.44C95.4736 6.696 95.5096 6.18 95.5336 5.892H95.3896C95.3416 6.036 95.2936 6.3 95.2456 6.684L94.8496 8.448L91.4296 24H87.7576L84.5896 9.42C84.3496 8.556 84.0736 7.38 83.7616 5.892H83.6536C83.6776 6.18 83.7016 6.708 83.7256 7.476C83.7736 8.244 83.7976 8.94 83.7976 9.564V24H80.1976V1.32H86.1376L88.9456 13.812C89.0896 14.436 89.2576 15.36 89.4496 16.584C89.6656 17.784 89.7976 18.576 89.8456 18.96H89.9896C90.0376 18.552 90.1456 17.736 90.3136 16.512C90.4816 15.264 90.6256 14.364 90.7456 13.812L93.5176 1.32H99.2776V24H95.3896ZM108.239 6.18C110.207 6.18 111.683 6.624 112.667 7.512C113.651 8.4 114.143 9.66 114.143 11.292V19.896C114.143 20.28 114.227 20.568 114.395 20.76C114.587 20.952 114.815 21.048 115.079 21.048H115.871V23.856C115.247 24.216 114.455 24.396 113.495 24.396C112.727 24.396 112.067 24.192 111.515 23.784C110.987 23.352 110.627 22.8 110.435 22.128H110.291C109.739 22.896 109.127 23.472 108.455 23.856C107.807 24.216 106.943 24.396 105.863 24.396C104.759 24.396 103.751 24.036 102.839 23.316C101.927 22.572 101.471 21.3 101.471 19.5C101.471 17.268 102.227 15.696 103.739 14.784C105.251 13.872 107.387 13.416 110.147 13.416V11.616C110.147 10.92 110.015 10.38 109.751 9.996C109.487 9.612 109.007 9.42 108.311 9.42C107.591 9.42 107.063 9.612 106.727 9.996C106.415 10.356 106.259 10.776 106.259 11.256V11.76H102.335C102.311 11.64 102.299 11.388 102.299 11.004C102.299 9.564 102.839 8.4 103.919 7.512C104.999 6.624 106.439 6.18 108.239 6.18ZM110.147 16.296C107.099 16.296 105.575 17.244 105.575 19.14C105.575 20.436 106.223 21.084 107.519 21.084C108.407 21.084 109.067 20.736 109.499 20.04C109.931 19.32 110.147 18.408 110.147 17.304V16.296ZM124.653 9.924H122.133V19.608C122.133 20.064 122.253 20.424 122.493 20.688C122.733 20.928 123.081 21.048 123.537 21.048H124.653V24C124.365 24.096 123.981 24.18 123.501 24.252C123.045 24.348 122.637 24.396 122.277 24.396C120.813 24.396 119.757 23.952 119.109 23.064C118.485 22.176 118.173 21.06 118.173 19.716V9.924H116.409V6.576H118.173L118.785 1.68H122.133V6.576H124.653V9.924ZM132.968 6.18C134.888 6.18 136.376 6.756 137.432 7.908C138.512 9.036 139.052 10.776 139.052 13.128H135.02C135.02 10.752 134.336 9.564 132.968 9.564C132.152 9.564 131.564 9.984 131.204 10.824C130.844 11.664 130.664 12.948 130.664 14.676V15.9C130.664 17.652 130.844 18.948 131.204 19.788C131.588 20.628 132.212 21.048 133.076 21.048C133.796 21.048 134.312 20.76 134.624 20.184C134.96 19.584 135.128 18.672 135.128 17.448H139.052C139.052 19.8 138.524 21.552 137.468 22.704C136.436 23.832 134.972 24.396 133.076 24.396C130.82 24.396 129.152 23.664 128.072 22.2C127.016 20.736 126.488 18.444 126.488 15.324C126.488 12.204 127.028 9.9 128.108 8.412C129.188 6.924 130.808 6.18 132.968 6.18ZM146.142 8.448C146.598 7.8 147.186 7.26 147.906 6.828C148.626 6.396 149.454 6.18 150.39 6.18C151.806 6.18 152.922 6.636 153.738 7.548C154.578 8.436 154.998 9.852 154.998 11.796V24H151.038V12.876C151.038 11.796 150.834 11.016 150.426 10.536C150.042 10.056 149.478 9.816 148.734 9.816C147.966 9.816 147.318 10.152 146.79 10.824C146.286 11.472 146.034 12.3 146.034 13.308V24H142.074V0.0599992H146.034V8.448H146.142Z" fill="#4ADA2A"/>
</svg>
